<?xml version="1.0" standalone="no"?>
<!DOCTYPE svg PUBLIC "-//W3C//DTD SVG 1.1//EN"
  "http://www.w3.org/Graphics/SVG/1.1/DTD/svg11.dtd">
<svg width="212mm" height="91.99999999999997mm" viewBox="-106 -55.999999999999986 212 91.99999999999997" xmlns="http://www.w3.org/2000/svg" version="1.1">
	<title>svgOutput</title>
	<desc>made with tinkercad</desc>
<path d="M 105 -1.9999999999999996 L 102 -1.9999999999999996 L 102 1.1102230246251565e-16 L 102 13.999999999999996 L 105 13.999999999999996 L 105 31.999999999999993 L 105 34.99999999999999 L 88 34.99999999999999 L 88 31.999999999999993 L 72 31.999999999999993 L 72 34.99999999999999 L 65.53600311279297 34.99999999999999 L 56 34.99999999999999 L 56 32.76800155639648 L 56 31.999999999999993 L 40 31.999999999999993 L 40 32.76800155639648 L 40 34.99999999999999 L 32.768001556396484 34.99999999999999 L 24 34.99999999999999 L 24 32.76800155639648 L 24 31.999999999999993 L 8 31.999999999999993 L 8 32.76800155639648 L 8 34.99999999999999 L 0 34.99999999999999 L -8 34.99999999999999 L -8 32.76800155639648 L -8 31.999999999999993 L -24 31.999999999999993 L -24 32.76800155639648 L -24 34.99999999999999 L -32.768001556396484 34.99999999999999 L -40 34.99999999999999 L -40 32.76800155639648 L -40 31.999999999999993 L -56 31.999999999999993 L -56 32.76800155639648 L -56 34.99999999999999 L -65.53600311279297 34.99999999999999 L -72 34.99999999999999 L -72 32.76800155639648 L -72 31.999999999999993 L -88 31.999999999999993 L -88 32.76800155639648 L -88 34.99999999999999 L -98.30400085449219 34.99999999999999 L -105 34.99999999999999 L -105 32.76800155639648 L -105 31.999999999999993 L -105 13.999999999999996 L -102 13.999999999999996 L -102 1.1102230246251565e-16 L -102 -1.9999999999999996 L -105 -1.9999999999999996 L -105 -17.999999999999996 L -102 -17.999999999999996 L -102 -32.76800155639648 L -102 -33.99999999999999 L -105 -33.99999999999999 L -105 -49.15200042724608 L -105 -54.999999999999986 L -102 -54.999999999999986 L -98.30400085449219 -54.999999999999986 L -88 -54.999999999999986 L -88 -51.999999999999986 L -72 -51.999999999999986 L -72 -54.999999999999986 L -65.53600311279297 -54.999999999999986 L -56 -54.999999999999986 L -56 -51.999999999999986 L -40 -51.999999999999986 L -40 -54.999999999999986 L -32.768001556396484 -54.999999999999986 L -24 -54.999999999999986 L -24 -51.999999999999986 L -8 -51.999999999999986 L -8 -54.999999999999986 L 0 -54.999999999999986 L 8 -54.999999999999986 L 8 -51.999999999999986 L 24 -51.999999999999986 L 24 -54.999999999999986 L 32.768001556396484 -54.999999999999986 L 40 -54.999999999999986 L 40 -51.999999999999986 L 56 -51.999999999999986 L 56 -54.999999999999986 L 65.53600311279297 -54.999999999999986 L 72 -54.999999999999986 L 72 -51.999999999999986 L 88 -51.999999999999986 L 88 -54.999999999999986 L 102 -54.999999999999986 L 105 -54.999999999999986 L 105 -33.99999999999999 L 102 -33.99999999999999 L 102 -17.999999999999996 L 105 -17.999999999999996 L 105 -1.9999999999999996 z" fill="none" stroke="rgb(255,0,0)" stroke-width="0.001mm" />
</svg>