<?xml version="1.0" standalone="no"?>
<!DOCTYPE svg PUBLIC "-//W3C//DTD SVG 1.1//EN"
  "http://www.w3.org/Graphics/SVG/1.1/DTD/svg11.dtd">
<svg width="212mm" height="91.99999999999997mm" viewBox="-108 -49.999999999999986 212 91.99999999999997" xmlns="http://www.w3.org/2000/svg" version="1.1">
	<title>svgOutput</title>
	<desc>made with tinkercad</desc>
<path d="M 86 -48.999999999999986 L 98.30400085449219 -48.999999999999986 L 100 -48.999999999999986 L 100 -32.76800155639648 L 100 -27.999999999999993 L 103 -27.999999999999993 L 103 -11.999999999999996 L 100 -11.999999999999996 L 100 -5.998000144958495 L 100 1.1102230246251565e-16 L 100 3.999999999999999 L 103 3.999999999999999 L 103 19.999999999999996 L 100 19.999999999999996 L 100 32.76800155639648 L 100 40.99999999999999 L 98.30400085449219 40.99999999999999 L 86 40.99999999999999 L 86 37.99999999999999 L 70 37.99999999999999 L 70 40.99999999999999 L 65.53600311279297 40.99999999999999 L 54 40.99999999999999 L 54 37.99999999999999 L 38 37.99999999999999 L 38 40.99999999999999 L 32.768001556396484 40.99999999999999 L 22 40.99999999999999 L 22 37.99999999999999 L 6 37.99999999999999 L 6 40.99999999999999 L 0 40.99999999999999 L -10 40.99999999999999 L -10 37.99999999999999 L -26 37.99999999999999 L -26 40.99999999999999 L -32.768001556396484 40.99999999999999 L -42 40.99999999999999 L -42 37.99999999999999 L -58 37.99999999999999 L -58 40.99999999999999 L -65.53600311279297 40.99999999999999 L -74 40.99999999999999 L -74 37.99999999999999 L -90 37.99999999999999 L -90 40.99999999999999 L -104 40.99999999999999 L -104 37.99999999999999 L -104 19.999999999999996 L -107 19.999999999999996 L -107 3.999999999999999 L -104 3.999999999999999 L -104 1.1102230246251565e-16 L -104 -11.999999999999996 L -107 -11.999999999999996 L -107 -27.999999999999993 L -104 -27.999999999999993 L -104 -48.999999999999986 L -90 -48.999999999999986 L -90 -45.99999999999999 L -74 -45.99999999999999 L -74 -48.999999999999986 L -65.53600311279297 -48.999999999999986 L -58 -48.999999999999986 L -58 -45.99999999999999 L -42 -45.99999999999999 L -42 -48.999999999999986 L -32.768001556396484 -48.999999999999986 L -26 -48.999999999999986 L -26 -45.99999999999999 L -10 -45.99999999999999 L -10 -48.999999999999986 L 0 -48.999999999999986 L 6 -48.999999999999986 L 6 -45.99999999999999 L 22 -45.99999999999999 L 22 -48.999999999999986 L 32.768001556396484 -48.999999999999986 L 38 -48.999999999999986 L 38 -45.99999999999999 L 54 -45.99999999999999 L 54 -48.999999999999986 L 65.53600311279297 -48.999999999999986 L 70 -48.999999999999986 L 70 -45.99999999999999 L 86 -45.99999999999999 L 86 -48.999999999999986 M 65.69200134277344 -7.3569998741149885 L 65.66200256347656 -7.511000156402586 L 65.61100006103516 -7.659999847412108 L 65.54100036621094 -7.8010001182556135 L 65.53600311279297 -7.808528900146483 L 65.4540023803711 -7.932000160217283 L 65.3499984741211 -8.050000190734862 L 65.23200225830078 -8.154000282287596 L 65.1747817993164 -8.19200038909912 L 65.10099792480469 -8.241000175476072 L 64.95999908447266 -8.310999870300291 L 64.81099700927734 -8.362000465393065 L 64.65699768066406 -8.392000198364256 L 64.5 -8.402999877929686 L 64.34300231933594 -8.392000198364256 L 64.18900299072266 -8.362000465393065 L 64.04000091552734 -8.310999870300291 L 63.89899826049805 -8.241000175476072 L 63.825218200683594 -8.19200038909912 L 63.768001556396484 -8.154000282287596 L 63.650001525878906 -8.050000190734862 L 63.54600143432617 -7.932000160217283 L 63.487998962402344 -7.844666481018065 L 63.45899963378906 -7.8010001182556135 L 63.388999938964844 -7.659999847412108 L 63.3380012512207 -7.511000156402586 L 63.30799865722656 -7.3569998741149885 L 63.29800033569336 -7.199999809265135 L 63.30799865722656 -7.04300022125244 L 63.3380012512207 -6.888999938964842 L 63.388999938964844 -6.739999771118162 L 63.45899963378906 -6.598999977111815 L 63.487998962402344 -6.555333137512205 L 63.54600143432617 -6.467999935150145 L 63.650001525878906 -6.349999904632567 L 63.768001556396484 -6.245999813079832 L 63.89899826049805 -6.158999919891356 L 63.92921447753906 -6.14400005340576 L 64.04000091552734 -6.089000225067137 L 64.18900299072266 -6.038000106811522 L 64.34300231933594 -6.007999897003172 L 64.5 -5.998000144958495 L 64.65699768066406 -6.007999897003172 L 64.81099700927734 -6.038000106811522 L 64.95999908447266 -6.089000225067137 L 65.07078552246094 -6.14400005340576 L 65.10099792480469 -6.158999919891356 L 65.23200225830078 -6.245999813079832 L 65.3499984741211 -6.349999904632567 L 65.4540023803711 -6.467999935150145 L 65.53600311279297 -6.5914711952209455 L 65.54100036621094 -6.598999977111815 L 65.61100006103516 -6.739999771118162 L 65.66200256347656 -6.888999938964842 L 65.69200134277344 -7.04300022125244 L 65.7030029296875 -7.199999809265135 L 65.69200134277344 -7.3569998741149885 M 48.4109992980957 -1.1720000505447383 L 49.152000427246094 -1.0876773595809932 L 49.694000244140625 -1.0260000228881831 L 51 -0.9760000109672543 L 52.305999755859375 -1.0260000228881831 L 53.5890007019043 -1.1720000505447383 L 54.827999114990234 -1.414000034332275 L 56.000999450683594 -1.7469999790191646 L 57.0890007019043 -2.164999961853027 L 57.34400177001953 -2.2935366630554195 L 58.073001861572266 -2.66100001335144 L 58.93600082397461 -3.2269999980926505 L 59.6619987487793 -3.8529999256134024 L 60.24100112915039 -4.526999950408935 L 60.6619987487793 -5.239999771118163 L 60.91699981689453 -5.9780001640319815 L 61.00299835205078 -6.729000091552733 L 60.91699981689453 -7.4800000190734846 L 60.6619987487793 -8.218000411987303 L 60.24100112915039 -8.93000030517578 L 59.6619987487793 -9.604999542236326 L 58.93600082397461 -10.230999946594237 L 58.073001861572266 -10.795999526977537 L 57.34400177001953 -11.164204597473143 L 57.0890007019043 -11.29300022125244 L 56.000999450683594 -11.711000442504881 L 54.827999114990234 -12.043000221252438 L 53.5890007019043 -12.284999847412106 L 52.305999755859375 -12.432000160217282 L 51 -12.480999946594235 L 49.694000244140625 -12.432000160217282 L 49.152000427246094 -12.369900703430172 L 48.4109992980957 -12.284999847412106 L 47.172000885009766 -12.043000221252438 L 45.999000549316406 -11.711000442504881 L 44.9109992980957 -11.29300022125244 L 43.926998138427734 -10.795999526977537 L 43.06399917602539 -10.230999946594237 L 42.3380012512207 -9.604999542236326 L 41.75899887084961 -8.93000030517578 L 41.3380012512207 -8.218000411987303 L 41.329017639160156 -8.19200038909912 L 41.08300018310547 -7.4800000190734846 L 40.99800109863281 -6.729000091552733 L 41.08300018310547 -5.9780001640319815 L 41.3380012512207 -5.239999771118163 L 41.75899887084961 -4.526999950408935 L 42.3380012512207 -3.8529999256134024 L 43.06399917602539 -3.2269999980926505 L 43.926998138427734 -2.66100001335144 L 44.9109992980957 -2.164999961853027 L 45.999000549316406 -1.7469999790191646 L 47.172000885009766 -1.414000034332275 L 48.4109992980957 -1.1720000505447383 M -29.99799919128418 -12.803000450134274 L -49.60300064086914 -12.803000450134274 L -49.60300064086914 1.1102230246251565e-16 L -49.60300064086914 0.0030000000260771422 L -29.99799919128418 0.0030000000260771422 L -29.99799919128418 1.1102230246251565e-16 L -29.99799919128418 -12.803000450134274 z" fill="none" stroke="rgb(255,0,0)" stroke-width="0.001mm" />
</svg>