<?xml version="1.0" standalone="no"?>
<!DOCTYPE svg PUBLIC "-//W3C//DTD SVG 1.1//EN"
  "http://www.w3.org/Graphics/SVG/1.1/DTD/svg11.dtd">
<svg width="212mm" height="50.997001647949205mm" viewBox="-106 -99.99700164794919 212 50.997001647949205" xmlns="http://www.w3.org/2000/svg" version="1.1">
	<title>svgOutput</title>
	<desc>made with tinkercad</desc>
<path d="M 88 -98.99700164794919 L 88 -95.9970016479492 L 102 -95.9970016479492 L 102 -81.9970016479492 L 105 -81.9970016479492 L 105 -65.9970016479492 L 102 -65.9970016479492 L 102 -49.999999999999986 L 65.53600311279297 -49.999999999999986 L 59.00299835205078 -49.999999999999986 L 58.972999572753906 -49.999999999999986 L 56 -49.999999999999986 L 53.667999267578125 -49.999999999999986 L 40 -49.999999999999986 L 24 -49.999999999999986 L 23.24799919128418 -49.999999999999986 L 23.19700050354004 -49.999999999999986 L 8 -49.999999999999986 L 0 -49.999999999999986 L -8 -49.999999999999986 L -20.99799919128418 -49.999999999999986 L -22.43899917602539 -49.999999999999986 L -22.93899917602539 -49.999999999999986 L -24 -49.999999999999986 L -25 -49.999999999999986 L -25.5 -49.999999999999986 L -27.600000381469727 -49.999999999999986 L -30.100000381469727 -49.999999999999986 L -30.1200008392334 -49.999999999999986 L -30.621000289916992 -49.999999999999986 L -31.118000030517578 -49.999999999999986 L -31.124000549316406 -49.999999999999986 L -32.00199890136719 -49.999999999999986 L -36.45899963378906 -49.999999999999986 L -40 -49.999999999999986 L -65.53600311279297 -49.999999999999986 L -102 -49.999999999999986 L -102 -65.53600311279295 L -102 -65.9970016479492 L -105 -65.9970016479492 L -105 -81.9970016479492 L -102 -81.9970016479492 L -102 -95.9970016479492 L -88 -95.9970016479492 L -88 -98.99700164794919 L -72 -98.99700164794919 L -72 -95.9970016479492 L -65.53600311279297 -95.9970016479492 L -56 -95.9970016479492 L -56 -98.99700164794919 L -40 -98.99700164794919 L -40 -95.9970016479492 L -36.45899963378906 -95.9970016479492 L -32.00199890136719 -95.9970016479492 L -31.124000549316406 -95.9970016479492 L -31.118000030517578 -95.9970016479492 L -30.621000289916992 -95.9970016479492 L -30.1200008392334 -95.9970016479492 L -30.100000381469727 -95.9970016479492 L -27.600000381469727 -95.9970016479492 L -25.5 -95.9970016479492 L -25 -95.9970016479492 L -24 -95.9970016479492 L -24 -98.99700164794919 L -22.93899917602539 -98.99700164794919 L -22.43899917602539 -98.99700164794919 L -20.99799919128418 -98.99700164794919 L -8 -98.99700164794919 L -8 -95.9970016479492 L 0 -95.9970016479492 L 8 -95.9970016479492 L 8 -98.99700164794919 L 23.19700050354004 -98.99700164794919 L 23.24799919128418 -98.99700164794919 L 24 -98.99700164794919 L 24 -95.9970016479492 L 40 -95.9970016479492 L 40 -98.99700164794919 L 53.667999267578125 -98.99700164794919 L 56 -98.99700164794919 L 56 -95.9970016479492 L 58.972999572753906 -95.9970016479492 L 59.00299835205078 -95.9970016479492 L 65.53600311279297 -95.9970016479492 L 72 -95.9970016479492 L 72 -98.99700164794919 L 88 -98.99700164794919 z" fill="none" stroke="rgb(255,0,0)" stroke-width="0.001mm" />
</svg>