<?xml version="1.0" standalone="no"?>
<!DOCTYPE svg PUBLIC "-//W3C//DTD SVG 1.1//EN"
  "http://www.w3.org/Graphics/SVG/1.1/DTD/svg11.dtd">
<svg width="212mm" height="211.99999999999994mm" viewBox="-103 -108.99999999999997 212 211.99999999999994" xmlns="http://www.w3.org/2000/svg" version="1.1">
	<title>svgOutput</title>
	<desc>made with tinkercad</desc>
<path d="M 91 -107.99999999999997 L 91 -104.99999999999997 L 105 -104.99999999999997 L 105 -90.99999999999999 L 108 -90.99999999999999 L 108 -74.99999999999999 L 105 -74.99999999999999 L 105 -65.53600311279295 L 105 -58.999999999999986 L 108 -58.999999999999986 L 108 -42.99999999999999 L 105 -42.99999999999999 L 105 -32.76800155639648 L 105 -26.999999999999993 L 108 -26.999999999999993 L 108 -10.999999999999998 L 105 -10.999999999999998 L 105 1.1102230246251565e-16 L 105 4.999999999999999 L 108 4.999999999999999 L 108 20.999999999999996 L 105 20.999999999999996 L 105 32.76800155639648 L 105 36.99999999999999 L 108 36.99999999999999 L 108 52.999999999999986 L 105 52.999999999999986 L 105 65.53600311279295 L 105 68.99999999999999 L 108 68.99999999999999 L 108 84.99999999999999 L 105 84.99999999999999 L 105 98.30400085449216 L 105 98.99999999999997 L 98.30400085449219 98.99999999999997 L 91 98.99999999999997 L 91 101.99999999999997 L 75 101.99999999999997 L 75 98.99999999999997 L 65.53600311279297 98.99999999999997 L 59 98.99999999999997 L 59 101.99999999999997 L 43 101.99999999999997 L 43 98.99999999999997 L 32.768001556396484 98.99999999999997 L 27 98.99999999999997 L 27 101.99999999999997 L 11 101.99999999999997 L 11 98.99999999999997 L 0 98.99999999999997 L -5 98.99999999999997 L -5 101.99999999999997 L -21 101.99999999999997 L -21 98.99999999999997 L -32.768001556396484 98.99999999999997 L -37 98.99999999999997 L -37 101.99999999999997 L -53 101.99999999999997 L -53 98.99999999999997 L -65.53600311279297 98.99999999999997 L -69 98.99999999999997 L -69 101.99999999999997 L -85 101.99999999999997 L -85 98.99999999999997 L -99 98.99999999999997 L -99 84.99999999999999 L -102 84.99999999999999 L -102 68.99999999999999 L -99 68.99999999999999 L -99 65.53600311279295 L -99 52.999999999999986 L -102 52.999999999999986 L -102 36.99999999999999 L -99 36.99999999999999 L -99 20.999999999999996 L -102 20.999999999999996 L -102 4.999999999999999 L -99 4.999999999999999 L -99 1.1102230246251565e-16 L -99 -10.999999999999998 L -102 -10.999999999999998 L -102 -26.999999999999993 L -99 -26.999999999999993 L -99 -42.99999999999999 L -102 -42.99999999999999 L -102 -58.999999999999986 L -99 -58.999999999999986 L -99 -65.53600311279295 L -99 -74.99999999999999 L -102 -74.99999999999999 L -102 -90.99999999999999 L -99 -90.99999999999999 L -99 -104.99999999999997 L -85 -104.99999999999997 L -85 -107.99999999999997 L -69 -107.99999999999997 L -69 -104.99999999999997 L -53 -104.99999999999997 L -53 -107.99999999999997 L -37 -107.99999999999997 L -37 -104.99999999999997 L -21 -104.99999999999997 L -21 -107.99999999999997 L -5 -107.99999999999997 L -5 -104.99999999999997 L 0 -104.99999999999997 L 11 -104.99999999999997 L 11 -107.99999999999997 L 27 -107.99999999999997 L 27 -104.99999999999997 L 43 -104.99999999999997 L 43 -107.99999999999997 L 59 -107.99999999999997 L 59 -104.99999999999997 L 65.53600311279297 -104.99999999999997 L 75 -104.99999999999997 L 75 -107.99999999999997 L 91 -107.99999999999997 z" fill="none" stroke="rgb(255,0,0)" stroke-width="0.001mm" />
</svg>