<?xml version="1.0" standalone="no"?>
<!DOCTYPE svg PUBLIC "-//W3C//DTD SVG 1.1//EN"
  "http://www.w3.org/Graphics/SVG/1.1/DTD/svg11.dtd">
<svg width="212mm" height="146.99800109863278mm" viewBox="-108 -54.999999999999986 212 146.99800109863278" xmlns="http://www.w3.org/2000/svg" version="1.1">
	<title>svgOutput</title>
	<desc>made with tinkercad</desc>
<path d="M 103 -22.002000808715817 L 100 -22.002000808715817 L 100 -6.001999855041502 L 103 -6.001999855041502 L 103 1.1102230246251565e-16 L 103 9.998000144958494 L 100 9.998000144958494 L 100 25.997999191284173 L 103 25.997999191284173 L 103 41.998001098632805 L 100 41.998001098632805 L 100 57.9980010986328 L 103 57.9980010986328 L 103 58.133998870849595 L 103 65.53600311279295 L 103 73.9980010986328 L 100 73.9980010986328 L 100 87.9980010986328 L 86 87.9980010986328 L 86 90.9980010986328 L 70 90.9980010986328 L 70 87.9980010986328 L 65.53600311279297 87.9980010986328 L 54 87.9980010986328 L 54 90.9980010986328 L 38 90.9980010986328 L 38 87.9980010986328 L 32.768001556396484 87.9980010986328 L 22 87.9980010986328 L 22 90.9980010986328 L 6 90.9980010986328 L 6 87.9980010986328 L 0 87.9980010986328 L -10 87.9980010986328 L -10 90.9980010986328 L -26 90.9980010986328 L -26 87.9980010986328 L -32.768001556396484 87.9980010986328 L -42 87.9980010986328 L -42 90.9980010986328 L -58 90.9980010986328 L -58 87.9980010986328 L -65.53600311279297 87.9980010986328 L -74 87.9980010986328 L -74 90.9980010986328 L -90 90.9980010986328 L -90 87.9980010986328 L -98.30400085449219 87.9980010986328 L -104 87.9980010986328 L -104 81.9199981689453 L -104 73.9980010986328 L -107 73.9980010986328 L -107 65.53600311279295 L -107 57.9980010986328 L -104 57.9980010986328 L -104 41.998001098632805 L -107 41.998001098632805 L -107 32.76800155639648 L -107 25.997999191284173 L -104 25.997999191284173 L -104 9.998000144958494 L -107 9.998000144958494 L -107 1.1102230246251565e-16 L -107 -6.001999855041502 L -104 -6.001999855041502 L -104 -22.002000808715817 L -107 -22.002000808715817 L -107 -32.76800155639648 L -107 -38.00199890136718 L -104 -38.00199890136718 L -104 -53.999999999999986 L -65.53600311279297 -53.999999999999986 L -42 -53.999999999999986 L -38.45899963378906 -53.999999999999986 L -34.00299835205078 -53.999999999999986 L -33.124000549316406 -53.999999999999986 L -33.11800003051758 -53.999999999999986 L -32.62099838256836 -53.999999999999986 L -32.119998931884766 -53.999999999999986 L -32.099998474121094 -53.999999999999986 L -29.600000381469727 -53.999999999999986 L -27.5 -53.999999999999986 L -27 -53.999999999999986 L -26 -53.999999999999986 L -24.93899917602539 -53.999999999999986 L -24.43899917602539 -53.999999999999986 L -22.99799919128418 -53.999999999999986 L -10 -53.999999999999986 L 0 -53.999999999999986 L 100 -53.999999999999986 L 100 -39.00500106811523 L 100 -38.00199890136718 L 103 -38.00199890136718 L 103 -22.002000808715817 M 30.99799919128418 -39.00500106811523 L 30.99799919128418 -38.00199890136718 L 30.99799919128418 -31.999999999999993 L 47.00299835205078 -31.999999999999993 L 47.00299835205078 -38.00199890136718 L 47.00299835205078 -39.00500106811523 L 30.99799919128418 -39.00500106811523 M -33.11800003051758 -27.999999999999993 L -32.62099838256836 -27.999999999999993 L -32.119998931884766 -27.999999999999993 L -32.099998474121094 -27.999999999999993 L -29.600000381469727 -27.999999999999993 L -27.5 -27.999999999999993 L -27 -27.999999999999993 L -26 -27.999999999999993 L -24.93899917602539 -27.999999999999993 L -24.43899917602539 -27.999999999999993 L -22.99799919128418 -27.999999999999993 L -22.99799919128418 -30.954999923706048 L -24.43899917602539 -30.954999923706048 L -24.93899917602539 -30.954999923706048 L -26 -30.954999923706048 L -27 -30.954999923706048 L -27.5 -30.954999923706048 L -29.600000381469727 -30.954999923706048 L -32.099998474121094 -30.954999923706048 L -32.119998931884766 -30.954999923706048 L -32.62099838256836 -30.954999923706048 L -33.11800003051758 -30.954999923706048 L -33.124000549316406 -30.954999923706048 L -34.00299835205078 -30.954999923706048 L -34.00299835205078 -27.999999999999993 L -33.124000549316406 -27.999999999999993 L -33.11800003051758 -27.999999999999993 M 56.972999572753906 -6.999999999999998 L 56.972999572753906 -22.002000808715817 L 56.972999572753906 -27.004999160766594 L 51.667999267578125 -27.004999160766594 L 51.667999267578125 -22.002000808715817 L 51.667999267578125 -6.999999999999998 L 56.972999572753906 -6.999999999999998 M 26.55299949645996 -6.999999999999998 L 26.55299949645996 -22.002000808715817 L 26.55299949645996 -27.004999160766594 L 21.24799919128418 -27.004999160766594 L 21.24799919128418 -22.002000808715817 L 21.24799919128418 -6.999999999999998 L 26.55299949645996 -6.999999999999998 z" fill="none" stroke="rgb(255,0,0)" stroke-width="0.001mm" />
</svg>