<?xml version="1.0" standalone="no"?>
<!DOCTYPE svg PUBLIC "-//W3C//DTD SVG 1.1//EN"
  "http://www.w3.org/Graphics/SVG/1.1/DTD/svg11.dtd">
<svg width="212mm" height="91.99999999999997mm" viewBox="-109 -55.999999999999986 212 91.99999999999997" xmlns="http://www.w3.org/2000/svg" version="1.1">
	<title>svgOutput</title>
	<desc>made with tinkercad</desc>
<path d="M 99 -54.999999999999986 L 99 -49.15200042724608 L 99 -33.99999999999999 L 102 -33.99999999999999 L 102 -32.76800155639648 L 102 -26.55699920654296 L 102 -19.556999206542965 L 102 -17.999999999999996 L 99 -17.999999999999996 L 99 -12.557999610900875 L 99 -1.9999999999999996 L 102 -1.9999999999999996 L 102 1.1102230246251565e-16 L 102 13.999999999999996 L 99 13.999999999999996 L 99 34.99999999999999 L 85 34.99999999999999 L 85 31.999999999999993 L 69 31.999999999999993 L 69 34.99999999999999 L 65.53600311279297 34.99999999999999 L 64.00399780273438 34.99999999999999 L 53 34.99999999999999 L 53 31.999999999999993 L 37 31.999999999999993 L 37 34.99999999999999 L 21 34.99999999999999 L 21 31.999999999999993 L 5 31.999999999999993 L 5 34.99999999999999 L 0 34.99999999999999 L -11 34.99999999999999 L -11 31.999999999999993 L -27 31.999999999999993 L -27 34.99999999999999 L -43 34.99999999999999 L -43 31.999999999999993 L -59 31.999999999999993 L -59 34.99999999999999 L -75 34.99999999999999 L -75 31.999999999999993 L -91 31.999999999999993 L -91 34.99999999999999 L -105 34.99999999999999 L -105 31.999999999999993 L -105 13.999999999999996 L -108 13.999999999999996 L -108 1.1102230246251565e-16 L -108 -1.9999999999999996 L -105 -1.9999999999999996 L -105 -17.999999999999996 L -108 -17.999999999999996 L -108 -33.99999999999999 L -105 -33.99999999999999 L -105 -54.999999999999986 L -91 -54.999999999999986 L -91 -51.999999999999986 L -77.2030029296875 -51.999999999999986 L -75 -51.999999999999986 L -75 -54.999999999999986 L -65.53600311279297 -54.999999999999986 L -59 -54.999999999999986 L -59 -51.999999999999986 L -43 -51.999999999999986 L -43 -54.999999999999986 L -32.768001556396484 -54.999999999999986 L -27 -54.999999999999986 L -27 -51.999999999999986 L -11 -51.999999999999986 L -11 -54.999999999999986 L 0 -54.999999999999986 L 5 -54.999999999999986 L 5 -51.999999999999986 L 21 -51.999999999999986 L 21 -54.999999999999986 L 32.768001556396484 -54.999999999999986 L 37 -54.999999999999986 L 37 -51.999999999999986 L 53 -51.999999999999986 L 53 -54.999999999999986 L 53.99700164794922 -54.999999999999986 L 57.99700164794922 -54.999999999999986 L 65.53600311279297 -54.999999999999986 L 69 -54.999999999999986 L 69 -51.999999999999986 L 79.5260009765625 -51.999999999999986 L 85 -51.999999999999986 L 85 -54.999999999999986 L 98.30400085449219 -54.999999999999986 L 99 -54.999999999999986 M 69.62300109863281 -44.881999969482415 L 69.48799896240234 -44.91899871826171 L 69.34700012207031 -44.94900131225585 L 69.2030029296875 -44.972000122070305 L 69.0530014038086 -44.98899841308593 L 69 -44.99246215820312 L 68.9000015258789 -44.9990005493164 L 68.74099731445312 -45.002998352050774 L 68.60800170898438 -44.999500274658196 L 68.58899688720703 -44.9990005493164 L 68.43900299072266 -44.98899841308593 L 68.29000091552734 -44.972000122070305 L 68.1449966430664 -44.94900131225585 L 68.0009994506836 -44.91899871826171 L 67.86000061035156 -44.881999969482415 L 67.72200012207031 -44.84500122070312 L 67.58999633789062 -44.79800033569335 L 67.58399963378906 -44.79533386230468 L 67.46399688720703 -44.74200057983398 L 67.34300231933594 -44.67800140380859 L 67.22799682617188 -44.60400009155273 L 67.11799621582031 -44.52199935913085 L 67.02100372314453 -44.43099975585937 L 66.93099975585938 -44.331001281738274 L 66.84700012207031 -44.222000122070305 L 66.7699966430664 -44.10400009155273 L 66.69999694824219 -43.97700119018554 L 66.63700103759766 -43.84099960327148 L 66.58799743652344 -43.69499969482421 L 66.55999755859375 -43.58580017089843 L 66.5479965209961 -43.53900146484374 L 66.51699829101562 -43.37099838256835 L 66.49400329589844 -43.19200134277343 L 66.48147583007812 -43.00799942016601 L 66.48100280761719 -43.00099945068359 L 66.47599792480469 -42.79999923706054 L 66.48100280761719 -42.592998504638665 L 66.49400329589844 -42.39699935913085 L 66.51699829101562 -42.21400070190429 L 66.5479965209961 -42.04399871826171 L 66.56309509277344 -41.98400115966796 L 66.58799743652344 -41.884998321533196 L 66.63700103759766 -41.73899841308593 L 66.69999694824219 -41.597000122070305 L 66.7699966430664 -41.46500015258788 L 66.84700012207031 -41.342998504638665 L 66.93099975585938 -41.23199844360351 L 67.02100372314453 -41.13000106811523 L 67.11799621582031 -41.03799819946288 L 67.2226333618164 -40.95999908447265 L 67.22799682617188 -40.956001281738274 L 67.34300231933594 -40.881999969482415 L 67.46399688720703 -40.818000793457024 L 67.58399963378906 -40.76466751098632 L 67.58999633789062 -40.76200103759765 L 67.72200012207031 -40.71500015258788 L 67.86000061035156 -40.67800140380859 L 68.0009994506836 -40.640998840332024 L 68.1449966430664 -40.61100006103515 L 68.29000091552734 -40.588001251220696 L 68.43900299072266 -40.570999145507805 L 68.58899688720703 -40.5610008239746 L 68.60800170898438 -40.560623168945305 L 68.74099731445312 -40.557998657226555 L 68.9000015258789 -40.5610008239746 L 69 -40.56753540039062 L 69.0530014038086 -40.570999145507805 L 69.2030029296875 -40.588001251220696 L 69.34700012207031 -40.61100006103515 L 69.47346496582031 -40.63790893554687 L 69.48799896240234 -40.640998840332024 L 69.62300109863281 -40.67800140380859 L 69.63200378417969 -40.68041229248046 L 69.76100158691406 -40.71500015258788 L 69.89299774169922 -40.76200103759765 L 70.01899719238281 -40.818000793457024 L 70.13999938964844 -40.881999969482415 L 70.25499725341797 -40.956001281738274 L 70.26036834716797 -40.95999908447265 L 70.36499786376953 -41.03799819946288 L 70.46199798583984 -41.13000106811523 L 70.552001953125 -41.23199844360351 L 70.63600158691406 -41.342998504638665 L 70.71299743652344 -41.46500015258788 L 70.78299713134766 -41.597000122070305 L 70.84600067138672 -41.73899841308593 L 70.90699768066406 -41.884998321533196 L 70.93875122070312 -41.98400115966796 L 70.95800018310547 -42.04399871826171 L 70.99700164794922 -42.21400070190429 L 71.02400207519531 -42.39699935913085 L 71.04100036621094 -42.592998504638665 L 71.0469970703125 -42.79999923706054 L 71.04100036621094 -43.00099945068359 L 71.04037475585938 -43.00799942016601 L 71.02400207519531 -43.19200134277343 L 70.99700164794922 -43.37099838256835 L 70.95800018310547 -43.53900146484374 L 70.90699768066406 -43.69499969482421 L 70.84600067138672 -43.84099960327148 L 70.78299713134766 -43.97700119018554 L 70.71299743652344 -44.10400009155273 L 70.65599822998047 -44.19134902954101 L 70.63600158691406 -44.222000122070305 L 70.552001953125 -44.331001281738274 L 70.46199798583984 -44.43099975585937 L 70.36499786376953 -44.52199935913085 L 70.25499725341797 -44.60400009155273 L 70.13999938964844 -44.67800140380859 L 70.01899719238281 -44.74200057983398 L 69.89299774169922 -44.79800033569335 L 69.76100158691406 -44.84500122070312 L 69.63200378417969 -44.879585266113274 L 69.62300109863281 -44.881999969482415 M 78.10199737548828 -44.881999969482415 L 77.96700286865234 -44.91899871826171 L 77.82599639892578 -44.94900131225585 L 77.8239974975586 -44.9493179321289 L 77.68099975585938 -44.972000122070305 L 77.53199768066406 -44.98899841308593 L 77.37899780273438 -44.9990005493164 L 77.22000122070312 -45.002998352050774 L 77.06800079345703 -44.9990005493164 L 76.91799926757812 -44.98899841308593 L 76.80000305175781 -44.97553634643554 L 76.76899719238281 -44.972000122070305 L 76.6240005493164 -44.94900131225585 L 76.4800033569336 -44.91899871826171 L 76.33799743652344 -44.881999969482415 L 76.20099639892578 -44.84500122070312 L 76.06900024414062 -44.79800033569335 L 75.94300079345703 -44.74200057983398 L 75.8219985961914 -44.67800140380859 L 75.7760009765625 -44.64865493774413 L 75.70600128173828 -44.60400009155273 L 75.59700012207031 -44.52199935913085 L 75.5 -44.43099975585937 L 75.41000366210938 -44.331001281738274 L 75.32599639892578 -44.222000122070305 L 75.2490005493164 -44.10400009155273 L 75.17900085449219 -43.97700119018554 L 75.11599731445312 -43.84099960327148 L 75.06700134277344 -43.69499969482421 L 75.0270004272461 -43.53900146484374 L 74.99500274658203 -43.37099838256835 L 74.9729995727539 -43.19200134277343 L 74.96047973632812 -43.00799942016601 L 74.95999908447266 -43.00099945068359 L 74.95500183105469 -42.79999923706054 L 74.95999908447266 -42.592998504638665 L 74.9729995727539 -42.39699935913085 L 74.99500274658203 -42.21400070190429 L 75.0270004272461 -42.04399871826171 L 75.0420913696289 -41.98400115966796 L 75.06700134277344 -41.884998321533196 L 75.11599731445312 -41.73899841308593 L 75.17900085449219 -41.597000122070305 L 75.2490005493164 -41.46500015258788 L 75.32599639892578 -41.342998504638665 L 75.41000366210938 -41.23199844360351 L 75.5 -41.13000106811523 L 75.59700012207031 -41.03799819946288 L 75.70068359375 -40.95999908447265 L 75.70600128173828 -40.956001281738274 L 75.7760009765625 -40.91134643554687 L 75.8219985961914 -40.881999969482415 L 75.94300079345703 -40.818000793457024 L 76.06900024414062 -40.76200103759765 L 76.20099639892578 -40.71500015258788 L 76.33799743652344 -40.67800140380859 L 76.4800033569336 -40.640998840332024 L 76.6240005493164 -40.61100006103515 L 76.76899719238281 -40.588001251220696 L 76.80000305175781 -40.584461212158196 L 76.91799926757812 -40.570999145507805 L 77.06800079345703 -40.5610008239746 L 77.22000122070312 -40.557998657226555 L 77.37899780273438 -40.5610008239746 L 77.53199768066406 -40.570999145507805 L 77.68099975585938 -40.588001251220696 L 77.8239974975586 -40.6106834411621 L 77.82599639892578 -40.61100006103515 L 77.95246887207031 -40.63790893554687 L 77.96700286865234 -40.640998840332024 L 78.10199737548828 -40.67800140380859 L 78.23999786376953 -40.71500015258788 L 78.37200164794922 -40.76200103759765 L 78.49800109863281 -40.818000793457024 L 78.61900329589844 -40.881999969482415 L 78.73400115966797 -40.956001281738274 L 78.73936462402344 -40.95999908447265 L 78.84400177001953 -41.03799819946288 L 78.94100189208984 -41.13000106811523 L 79.03099822998047 -41.23199844360351 L 79.11499786376953 -41.342998504638665 L 79.19100189208984 -41.46500015258788 L 79.26200103759766 -41.597000122070305 L 79.32499694824219 -41.73899841308593 L 79.38600158691406 -41.884998321533196 L 79.41712951660156 -41.98400115966796 L 79.43599700927734 -42.04399871826171 L 79.4749984741211 -42.21400070190429 L 79.50299835205078 -42.39699935913085 L 79.5199966430664 -42.592998504638665 L 79.5260009765625 -42.79999923706054 L 79.5199966430664 -43.00099945068359 L 79.51937866210938 -43.00799942016601 L 79.50299835205078 -43.19200134277343 L 79.4749984741211 -43.37099838256835 L 79.43599700927734 -43.53900146484374 L 79.38600158691406 -43.69499969482421 L 79.32499694824219 -43.84099960327148 L 79.26200103759766 -43.97700119018554 L 79.23125457763672 -44.03200149536132 L 79.19100189208984 -44.10400009155273 L 79.11499786376953 -44.222000122070305 L 79.03099822998047 -44.331001281738274 L 78.94100189208984 -44.43099975585937 L 78.84400177001953 -44.52199935913085 L 78.73400115966797 -44.60400009155273 L 78.61900329589844 -44.67800140380859 L 78.49800109863281 -44.74200057983398 L 78.37200164794922 -44.79800033569335 L 78.25003051757812 -44.84143066406249 L 78.23999786376953 -44.84500122070312 L 78.10199737548828 -44.881999969482415 M 74.10099792480469 -37.881999969482415 L 73.96499633789062 -37.91899871826171 L 73.82499694824219 -37.94900131225585 L 73.72799682617188 -37.96438598632812 L 73.68000030517578 -37.972000122070305 L 73.53099822998047 -37.98899841308593 L 73.37699890136719 -37.9990005493164 L 73.21900177001953 -38.002998352050774 L 73.06700134277344 -37.9990005493164 L 72.91600036621094 -37.98899841308593 L 72.76799774169922 -37.972000122070305 L 72.7040023803711 -37.96191787719726 L 72.62200164794922 -37.94900131225585 L 72.47899627685547 -37.91899871826171 L 72.33699798583984 -37.881999969482415 L 72.19999694824219 -37.84500122070312 L 72.06800079345703 -37.79800033569335 L 71.94100189208984 -37.74200057983398 L 71.82099914550781 -37.67800140380859 L 71.70500183105469 -37.60400009155273 L 71.68000030517578 -37.585193634033196 L 71.59600067138672 -37.52199935913085 L 71.4990005493164 -37.43099975585937 L 71.40899658203125 -37.331001281738274 L 71.32499694824219 -37.222000122070305 L 71.24800109863281 -37.10400009155273 L 71.1780014038086 -36.97700119018554 L 71.12565612792969 -36.86399841308593 L 71.11499786376953 -36.84099960327148 L 71.06600189208984 -36.69499969482421 L 71.0260009765625 -36.53900146484374 L 70.99400329589844 -36.37099838256835 L 70.97200012207031 -36.19200134277343 L 70.95899963378906 -36.00099945068359 L 70.9540023803711 -35.79999923706054 L 70.95899963378906 -35.592998504638665 L 70.97200012207031 -35.39699935913085 L 70.99400329589844 -35.21400070190429 L 71.0260009765625 -35.04399871826171 L 71.06600189208984 -34.884998321533196 L 71.08915710449219 -34.81600189208984 L 71.11499786376953 -34.73899841308593 L 71.1780014038086 -34.597000122070305 L 71.24800109863281 -34.46500015258788 L 71.32499694824219 -34.342998504638665 L 71.40899658203125 -34.23199844360351 L 71.4990005493164 -34.13000106811523 L 71.59600067138672 -34.03799819946288 L 71.68000030517578 -33.974807739257805 L 71.70500183105469 -33.956001281738274 L 71.82099914550781 -33.881999969482415 L 71.94100189208984 -33.818000793457024 L 72.06800079345703 -33.76200103759765 L 72.19999694824219 -33.71500015258788 L 72.33699798583984 -33.67800140380859 L 72.47899627685547 -33.640998840332024 L 72.62200164794922 -33.61100006103515 L 72.7040023803711 -33.59808349609374 L 72.76799774169922 -33.588001251220696 L 72.91600036621094 -33.570999145507805 L 73.06700134277344 -33.5610008239746 L 73.21900177001953 -33.557998657226555 L 73.37699890136719 -33.5610008239746 L 73.53099822998047 -33.570999145507805 L 73.68000030517578 -33.588001251220696 L 73.72799682617188 -33.59561538696288 L 73.82499694824219 -33.61100006103515 L 73.95503997802734 -33.63886642456054 L 73.96499633789062 -33.640998840332024 L 74.10099792480469 -33.67800140380859 L 74.23899841308594 -33.71500015258788 L 74.37100219726562 -33.76200103759765 L 74.49700164794922 -33.818000793457024 L 74.61799621582031 -33.881999969482415 L 74.73300170898438 -33.956001281738274 L 74.75199890136719 -33.97016525268554 L 74.84300231933594 -34.03799819946288 L 74.94000244140625 -34.13000106811523 L 75.02999877929688 -34.23199844360351 L 75.11299896240234 -34.342998504638665 L 75.19000244140625 -34.46500015258788 L 75.26000213623047 -34.597000122070305 L 75.3239974975586 -34.73899841308593 L 75.35617065429688 -34.81600189208984 L 75.38500213623047 -34.884998321533196 L 75.43499755859375 -35.04399871826171 L 75.4739990234375 -35.21400070190429 L 75.50199890136719 -35.39699935913085 L 75.51899719238281 -35.592998504638665 L 75.52400207519531 -35.79999923706054 L 75.51899719238281 -36.00099945068359 L 75.50199890136719 -36.19200134277343 L 75.4739990234375 -36.37099838256835 L 75.43499755859375 -36.53900146484374 L 75.38500213623047 -36.69499969482421 L 75.3239974975586 -36.84099960327148 L 75.31317901611328 -36.86399841308593 L 75.26000213623047 -36.97700119018554 L 75.19000244140625 -37.10400009155273 L 75.11299896240234 -37.222000122070305 L 75.02999877929688 -37.331001281738274 L 74.94000244140625 -37.43099975585937 L 74.84300231933594 -37.52199935913085 L 74.75199890136719 -37.58983612060546 L 74.73300170898438 -37.60400009155273 L 74.61799621582031 -37.67800140380859 L 74.49700164794922 -37.74200057983398 L 74.37100219726562 -37.79800033569335 L 74.24547576904297 -37.842693328857415 L 74.23899841308594 -37.84500122070312 L 74.10099792480469 -37.881999969482415 M 82.5790023803711 -37.881999969482415 L 82.44400024414062 -37.91899871826171 L 82.3030014038086 -37.94900131225585 L 82.15899658203125 -37.972000122070305 L 82.00900268554688 -37.98899841308593 L 81.91999816894531 -37.99481582641601 L 81.85600280761719 -37.9990005493164 L 81.697998046875 -38.002998352050774 L 81.54499816894531 -37.9990005493164 L 81.3949966430664 -37.98899841308593 L 81.24700164794922 -37.972000122070305 L 81.10099792480469 -37.94900131225585 L 80.95700073242188 -37.91899871826171 L 80.89600372314453 -37.90299224853515 L 80.81600189208984 -37.881999969482415 L 80.6780014038086 -37.84500122070312 L 80.5459976196289 -37.79800033569335 L 80.41999816894531 -37.74200057983398 L 80.29900360107422 -37.67800140380859 L 80.18399810791016 -37.60400009155273 L 80.0739974975586 -37.52199935913085 L 79.97699737548828 -37.43099975585937 L 79.88700103759766 -37.331001281738274 L 79.87200164794922 -37.31153488159179 L 79.8030014038086 -37.222000122070305 L 79.72699737548828 -37.10400009155273 L 79.65599822998047 -36.97700119018554 L 79.60365295410156 -36.86399841308593 L 79.59300231933594 -36.84099960327148 L 79.54399871826172 -36.69499969482421 L 79.50399780273438 -36.53900146484374 L 79.4729995727539 -36.37099838256835 L 79.44999694824219 -36.19200134277343 L 79.43699645996094 -36.00099945068359 L 79.43299865722656 -35.79999923706054 L 79.43699645996094 -35.592998504638665 L 79.44999694824219 -35.39699935913085 L 79.4729995727539 -35.21400070190429 L 79.50399780273438 -35.04399871826171 L 79.54399871826172 -34.884998321533196 L 79.56715393066406 -34.81600189208984 L 79.59300231933594 -34.73899841308593 L 79.65599822998047 -34.597000122070305 L 79.72699737548828 -34.46500015258788 L 79.8030014038086 -34.342998504638665 L 79.87200164794922 -34.251819610595696 L 79.88700103759766 -34.23199844360351 L 79.97699737548828 -34.13000106811523 L 80.0739974975586 -34.03799819946288 L 80.18399810791016 -33.956001281738274 L 80.29900360107422 -33.881999969482415 L 80.41999816894531 -33.818000793457024 L 80.5459976196289 -33.76200103759765 L 80.6780014038086 -33.71500015258788 L 80.81600189208984 -33.67800140380859 L 80.89600372314453 -33.65700531005859 L 80.95700073242188 -33.640998840332024 L 81.10099792480469 -33.61100006103515 L 81.24700164794922 -33.588001251220696 L 81.3949966430664 -33.570999145507805 L 81.54499816894531 -33.5610008239746 L 81.697998046875 -33.557998657226555 L 81.85600280761719 -33.5610008239746 L 81.91999816894531 -33.56518173217773 L 82.00900268554688 -33.570999145507805 L 82.15899658203125 -33.588001251220696 L 82.3030014038086 -33.61100006103515 L 82.4294662475586 -33.63790893554687 L 82.44400024414062 -33.640998840332024 L 82.5790023803711 -33.67800140380859 L 82.71700286865234 -33.71500015258788 L 82.8489990234375 -33.76200103759765 L 82.94400024414062 -33.80422210693359 L 82.9749984741211 -33.818000793457024 L 83.09600067138672 -33.881999969482415 L 83.21099853515625 -33.956001281738274 L 83.32099914550781 -34.03799819946288 L 83.41799926757812 -34.13000106811523 L 83.50800323486328 -34.23199844360351 L 83.59200286865234 -34.342998504638665 L 83.66799926757812 -34.46500015258788 L 83.73899841308594 -34.597000122070305 L 83.802001953125 -34.73899841308593 L 83.83416748046875 -34.81600189208984 L 83.86299896240234 -34.884998321533196 L 83.91300201416016 -35.04399871826171 L 83.9520034790039 -35.21400070190429 L 83.9800033569336 -35.39699935913085 L 83.99700164794922 -35.592998504638665 L 84.00199890136719 -35.79999923706054 L 83.99700164794922 -36.00099945068359 L 83.9800033569336 -36.19200134277343 L 83.9520034790039 -36.37099838256835 L 83.91300201416016 -36.53900146484374 L 83.86299896240234 -36.69499969482421 L 83.802001953125 -36.84099960327148 L 83.79134368896484 -36.86399841308593 L 83.73899841308594 -36.97700119018554 L 83.66799926757812 -37.10400009155273 L 83.59200286865234 -37.222000122070305 L 83.50800323486328 -37.331001281738274 L 83.41799926757812 -37.43099975585937 L 83.32099914550781 -37.52199935913085 L 83.21099853515625 -37.60400009155273 L 83.09600067138672 -37.67800140380859 L 82.9749984741211 -37.74200057983398 L 82.94400024414062 -37.755779266357415 L 82.8489990234375 -37.79800033569335 L 82.7270278930664 -37.84143066406249 L 82.71700286865234 -37.84500122070312 L 82.5790023803711 -37.881999969482415 M 65.62300109863281 -37.881999969482415 L 65.53600311279297 -37.90567016601562 L 65.48699951171875 -37.91899871826171 L 65.34700012207031 -37.94900131225585 L 65.2020034790039 -37.972000122070305 L 65.0530014038086 -37.98899841308593 L 64.89900207519531 -37.9990005493164 L 64.74099731445312 -38.002998352050774 L 64.58799743652344 -37.9990005493164 L 64.51200103759766 -37.99393463134765 L 64.43800354003906 -37.98899841308593 L 64.29000091552734 -37.972000122070305 L 64.14399719238281 -37.94900131225585 L 64 -37.91899871826171 L 63.85900115966797 -37.881999969482415 L 63.72100067138672 -37.84500122070312 L 63.5890007019043 -37.79800033569335 L 63.487998962402344 -37.75311279296874 L 63.4630012512207 -37.74200057983398 L 63.34199905395508 -37.67800140380859 L 63.22700119018555 -37.60400009155273 L 63.117000579833984 -37.52199935913085 L 63.02000045776367 -37.43099975585937 L 62.93000030517578 -37.331001281738274 L 62.84700012207031 -37.222000122070305 L 62.77000045776367 -37.10400009155273 L 62.70000076293945 -36.97700119018554 L 62.64682388305664 -36.86399841308593 L 62.63600158691406 -36.84099960327148 L 62.58700180053711 -36.69499969482421 L 62.547000885009766 -36.53900146484374 L 62.51599884033203 -36.37099838256835 L 62.49399948120117 -36.19200134277343 L 62.47999954223633 -36.00099945068359 L 62.47600173950195 -35.79999923706054 L 62.47999954223633 -35.592998504638665 L 62.49399948120117 -35.39699935913085 L 62.51599884033203 -35.21400070190429 L 62.547000885009766 -35.04399871826171 L 62.58700180053711 -34.884998321533196 L 62.61015701293945 -34.81600189208984 L 62.63600158691406 -34.73899841308593 L 62.70000076293945 -34.597000122070305 L 62.77000045776367 -34.46500015258788 L 62.84700012207031 -34.342998504638665 L 62.93000030517578 -34.23199844360351 L 63.02000045776367 -34.13000106811523 L 63.117000579833984 -34.03799819946288 L 63.22700119018555 -33.956001281738274 L 63.34199905395508 -33.881999969482415 L 63.4630012512207 -33.818000793457024 L 63.487998962402344 -33.80688858032226 L 63.5890007019043 -33.76200103759765 L 63.72100067138672 -33.71500015258788 L 63.85900115966797 -33.67800140380859 L 64 -33.640998840332024 L 64.14399719238281 -33.61100006103515 L 64.29000091552734 -33.588001251220696 L 64.43800354003906 -33.570999145507805 L 64.51200103759766 -33.56606674194335 L 64.58799743652344 -33.5610008239746 L 64.74099731445312 -33.557998657226555 L 64.89900207519531 -33.5610008239746 L 65.0530014038086 -33.570999145507805 L 65.2020034790039 -33.588001251220696 L 65.34700012207031 -33.61100006103515 L 65.48699951171875 -33.640998840332024 L 65.53600311279297 -33.65433120727538 L 65.62300109863281 -33.67800140380859 L 65.76000213623047 -33.71500015258788 L 65.89199829101562 -33.76200103759765 L 66.01899719238281 -33.818000793457024 L 66.13899993896484 -33.881999969482415 L 66.25499725341797 -33.956001281738274 L 66.36399841308594 -34.03799819946288 L 66.46099853515625 -34.13000106811523 L 66.5510025024414 -34.23199844360351 L 66.63500213623047 -34.342998504638665 L 66.71199798583984 -34.46500015258788 L 66.78199768066406 -34.597000122070305 L 66.84500122070312 -34.73899841308593 L 66.87770080566406 -34.81600189208984 L 66.90699768066406 -34.884998321533196 L 66.95700073242188 -35.04399871826171 L 66.99600219726562 -35.21400070190429 L 67.02300262451172 -35.39699935913085 L 67.04000091552734 -35.592998504638665 L 67.0459976196289 -35.79999923706054 L 67.04000091552734 -36.00099945068359 L 67.02300262451172 -36.19200134277343 L 66.99600219726562 -36.37099838256835 L 66.95700073242188 -36.53900146484374 L 66.90699768066406 -36.69499969482421 L 66.84500122070312 -36.84099960327148 L 66.83434295654297 -36.86399841308593 L 66.78199768066406 -36.97700119018554 L 66.71199798583984 -37.10400009155273 L 66.63500213623047 -37.222000122070305 L 66.5510025024414 -37.331001281738274 L 66.46099853515625 -37.43099975585937 L 66.36399841308594 -37.52199935913085 L 66.25499725341797 -37.60400009155273 L 66.13899993896484 -37.67800140380859 L 66.01899719238281 -37.74200057983398 L 65.89199829101562 -37.79800033569335 L 65.76323699951172 -37.84384536743163 L 65.76000213623047 -37.84500122070312 L 65.62300109863281 -37.881999969482415 M 69.62300109863281 -12.678000450134274 L 69.63200378417969 -12.680413246154782 L 69.76100158691406 -12.715000152587887 L 69.89299774169922 -12.762000083923336 L 70.01899719238281 -12.817999839782711 L 70.13999938964844 -12.881999969482418 L 70.25499725341797 -12.956000328063961 L 70.36499786376953 -13.03800010681152 L 70.46199798583984 -13.130000114440914 L 70.552001953125 -13.232000350952145 L 70.63600158691406 -13.343000411987301 L 70.65599822998047 -13.374688148498532 L 70.71299743652344 -13.465000152587887 L 70.78299713134766 -13.597000122070309 L 70.84600067138672 -13.739000320434567 L 70.90699768066406 -13.885000228881832 L 70.95800018310547 -14.043999671936032 L 70.99700164794922 -14.213999748229977 L 71.01499938964844 -14.33600044250488 L 71.02400207519531 -14.397000312805172 L 71.04100036621094 -14.593000411987301 L 71.0469970703125 -14.80000019073486 L 71.04100036621094 -15.001000404357907 L 71.02400207519531 -15.192000389099118 L 70.99700164794922 -15.371000289916989 L 70.95800018310547 -15.538999557495114 L 70.90699768066406 -15.694999694824215 L 70.84600067138672 -15.84099960327148 L 70.78299713134766 -15.977000236511227 L 70.71299743652344 -16.10400009155273 L 70.63600158691406 -16.22200012207031 L 70.552001953125 -16.330999374389645 L 70.50430297851562 -16.38400077819824 L 70.46199798583984 -16.43099975585937 L 70.36499786376953 -16.521999359130856 L 70.25499725341797 -16.60400009155273 L 70.13999938964844 -16.677999496459957 L 70.01899719238281 -16.74200057983398 L 69.89299774169922 -16.798000335693356 L 69.76100158691406 -16.84499931335449 L 69.63200378417969 -16.87958717346191 L 69.62300109863281 -16.88199996948242 L 69.48799896240234 -16.919000625610348 L 69.34700012207031 -16.948999404907223 L 69.2030029296875 -16.97200012207031 L 69.0530014038086 -16.989000320434567 L 68.9000015258789 -16.999000549316403 L 68.74099731445312 -17.00300025939941 L 68.60800170898438 -16.9995002746582 L 68.58899688720703 -16.999000549316403 L 68.43900299072266 -16.989000320434567 L 68.29000091552734 -16.97200012207031 L 68.1449966430664 -16.948999404907223 L 68.0009994506836 -16.919000625610348 L 67.86000061035156 -16.88199996948242 L 67.72200012207031 -16.84499931335449 L 67.58999633789062 -16.798000335693356 L 67.58399963378906 -16.795333862304684 L 67.46399688720703 -16.74200057983398 L 67.34300231933594 -16.677999496459957 L 67.22799682617188 -16.60400009155273 L 67.11799621582031 -16.521999359130856 L 67.02100372314453 -16.43099975585937 L 66.97869873046875 -16.38400077819824 L 66.93099975585938 -16.330999374389645 L 66.84700012207031 -16.22200012207031 L 66.7699966430664 -16.10400009155273 L 66.69999694824219 -15.977000236511227 L 66.63700103759766 -15.84099960327148 L 66.58799743652344 -15.694999694824215 L 66.5479965209961 -15.538999557495114 L 66.51699829101562 -15.371000289916989 L 66.49400329589844 -15.192000389099118 L 66.48100280761719 -15.001000404357907 L 66.47599792480469 -14.80000019073486 L 66.48100280761719 -14.593000411987301 L 66.49400329589844 -14.397000312805172 L 66.50166320800781 -14.33600044250488 L 66.51699829101562 -14.213999748229977 L 66.5479965209961 -14.043999671936032 L 66.58799743652344 -13.885000228881832 L 66.63700103759766 -13.739000320434567 L 66.69999694824219 -13.597000122070309 L 66.7699966430664 -13.465000152587887 L 66.84700012207031 -13.343000411987301 L 66.93099975585938 -13.232000350952145 L 67.02100372314453 -13.130000114440914 L 67.11799621582031 -13.03800010681152 L 67.22799682617188 -12.956000328063961 L 67.34300231933594 -12.881999969482418 L 67.46399688720703 -12.817999839782711 L 67.58399963378906 -12.764666557312008 L 67.58999633789062 -12.762000083923336 L 67.72200012207031 -12.715000152587887 L 67.86000061035156 -12.678000450134274 L 68.0009994506836 -12.640999794006344 L 68.1449966430664 -12.611000061035153 L 68.29000091552734 -12.588000297546383 L 68.43900299072266 -12.571000099182125 L 68.58899688720703 -12.56099987030029 L 68.60800170898438 -12.560625076293942 L 68.74099731445312 -12.557999610900875 L 68.9000015258789 -12.56099987030029 L 69.0530014038086 -12.571000099182125 L 69.2030029296875 -12.588000297546383 L 69.34700012207031 -12.611000061035153 L 69.47346496582031 -12.637907981872555 L 69.48799896240234 -12.640999794006344 L 69.62300109863281 -12.678000450134274 M 69.86199951171875 -26.677999496459954 L 69.9990005493164 -26.715000152587884 L 70.13099670410156 -26.761999130249016 L 70.25800323486328 -26.818000793457024 L 70.37899780273438 -26.881999969482415 L 70.49400329589844 -26.95599937438964 L 70.60399627685547 -27.038000106811516 L 70.69999694824219 -27.129999160766594 L 70.79100036621094 -27.23200035095214 L 70.8740005493164 -27.343000411987298 L 70.95099639892578 -27.465000152587884 L 71.02100372314453 -27.597000122070305 L 71.04398345947266 -27.64800071716308 L 71.08499908447266 -27.739000320434563 L 71.14600372314453 -27.88500022888183 L 71.19599914550781 -28.044000625610344 L 71.23500061035156 -28.21400070190429 L 71.26300048828125 -28.396999359130852 L 71.27999877929688 -28.593000411987298 L 71.28190612792969 -28.67200088500976 L 71.28500366210938 -28.79999923706054 L 71.27999877929688 -29.000999450683587 L 71.26300048828125 -29.191999435424798 L 71.23500061035156 -29.371000289916985 L 71.19599914550781 -29.53899955749511 L 71.14600372314453 -29.69499969482421 L 71.14558410644531 -29.695999145507805 L 71.08499908447266 -29.840999603271477 L 71.02100372314453 -29.976999282836907 L 70.95099639892578 -30.104000091552727 L 70.8740005493164 -30.222000122070305 L 70.79100036621094 -30.33099937438964 L 70.69999694824219 -30.430999755859368 L 70.60399627685547 -30.521999359130852 L 70.49400329589844 -30.604000091552727 L 70.37899780273438 -30.677999496459954 L 70.29959106445312 -30.719999313354485 L 70.25800323486328 -30.742000579833977 L 70.13099670410156 -30.798000335693352 L 70.00223541259766 -30.843847274780266 L 69.9990005493164 -30.844999313354485 L 69.86199951171875 -30.881999969482415 L 69.72599792480469 -30.919000625610344 L 69.63200378417969 -30.939142227172844 L 69.58599853515625 -30.94899940490722 L 69.44100189208984 -30.972000122070305 L 69.29199981689453 -30.989000320434563 L 69.13800048828125 -30.9990005493164 L 68.9800033569336 -31.003000259399407 L 68.8270034790039 -30.9990005493164 L 68.677001953125 -30.989000320434563 L 68.60800170898438 -30.981073379516594 L 68.52899932861328 -30.972000122070305 L 68.38300323486328 -30.94899940490722 L 68.23899841308594 -30.919000625610344 L 68.0979995727539 -30.881999969482415 L 67.95999908447266 -30.844999313354485 L 67.8280029296875 -30.798000335693352 L 67.7020034790039 -30.742000579833977 L 67.66040802001953 -30.719999313354485 L 67.58399963378906 -30.679586410522454 L 67.58100128173828 -30.677999496459954 L 67.46600341796875 -30.604000091552727 L 67.35600280761719 -30.521999359130852 L 67.25900268554688 -30.430999755859368 L 67.16899871826172 -30.33099937438964 L 67.08599853515625 -30.222000122070305 L 67.00900268554688 -30.104000091552727 L 66.93900299072266 -29.976999282836907 L 66.875 -29.840999603271477 L 66.82633209228516 -29.695999145507805 L 66.82599639892578 -29.69499969482421 L 66.78600311279297 -29.53899955749511 L 66.75499725341797 -29.371000289916985 L 66.73300170898438 -29.191999435424798 L 66.71900177001953 -29.000999450683587 L 66.71499633789062 -28.79999923706054 L 66.71747589111328 -28.67200088500976 L 66.71900177001953 -28.593000411987298 L 66.73300170898438 -28.396999359130852 L 66.75499725341797 -28.21400070190429 L 66.78600311279297 -28.044000625610344 L 66.82599639892578 -27.88500022888183 L 66.875 -27.739000320434563 L 66.916015625 -27.64800071716308 L 66.93900299072266 -27.597000122070305 L 67.00900268554688 -27.465000152587884 L 67.08599853515625 -27.343000411987298 L 67.16899871826172 -27.23200035095214 L 67.25900268554688 -27.129999160766594 L 67.35600280761719 -27.038000106811516 L 67.46600341796875 -26.95599937438964 L 67.58100128173828 -26.881999969482415 L 67.58399963378906 -26.880413055419915 L 67.7020034790039 -26.818000793457024 L 67.8280029296875 -26.761999130249016 L 67.95999908447266 -26.715000152587884 L 68.0979995727539 -26.677999496459954 L 68.23899841308594 -26.641000747680657 L 68.32060241699219 -26.6240005493164 L 68.38300323486328 -26.61100006103515 L 68.52899932861328 -26.587999343872063 L 68.677001953125 -26.570999145507805 L 68.8270034790039 -26.561000823974602 L 68.9800033569336 -26.55699920654296 L 69.13800048828125 -26.561000823974602 L 69.29199981689453 -26.570999145507805 L 69.44100189208984 -26.587999343872063 L 69.58599853515625 -26.61100006103515 L 69.63200378417969 -26.620857238769524 L 69.64666748046875 -26.6240005493164 L 69.72116088867188 -26.639963150024407 L 69.72599792480469 -26.641000747680657 L 69.86199951171875 -26.677999496459954 M 65.62300109863281 -23.88199996948242 L 65.53600311279297 -23.90566825866699 L 65.48699951171875 -23.919000625610348 L 65.34700012207031 -23.948999404907223 L 65.2020034790039 -23.97200012207031 L 65.0530014038086 -23.989000320434567 L 64.89900207519531 -23.999000549316403 L 64.74099731445312 -24.003000259399407 L 64.58799743652344 -23.999000549316403 L 64.51200103759766 -23.99393272399902 L 64.43800354003906 -23.989000320434567 L 64.29000091552734 -23.97200012207031 L 64.14399719238281 -23.948999404907223 L 64 -23.919000625610348 L 63.85900115966797 -23.88199996948242 L 63.72100067138672 -23.84499931335449 L 63.5890007019043 -23.798000335693356 L 63.487998962402344 -23.753110885620114 L 63.4630012512207 -23.74200057983398 L 63.34199905395508 -23.677999496459957 L 63.22700119018555 -23.60400009155273 L 63.117000579833984 -23.521999359130856 L 63.02000045776367 -23.43099975585937 L 62.93000030517578 -23.330999374389645 L 62.84700012207031 -23.22200012207031 L 62.77000045776367 -23.10400009155273 L 62.70000076293945 -22.97699928283691 L 62.63600158691406 -22.84099960327148 L 62.58700180053711 -22.694999694824215 L 62.547000885009766 -22.538999557495114 L 62.54497146606445 -22.527999877929684 L 62.51599884033203 -22.37100028991699 L 62.49399948120117 -22.1919994354248 L 62.47999954223633 -22.00099945068359 L 62.47600173950195 -21.799999237060543 L 62.47999954223633 -21.5930004119873 L 62.49399948120117 -21.396999359130856 L 62.51599884033203 -21.214000701904293 L 62.547000885009766 -21.044000625610348 L 62.58700180053711 -20.885000228881832 L 62.63600158691406 -20.739000320434567 L 62.70000076293945 -20.59700012207031 L 62.762046813964844 -20.479999542236325 L 62.77000045776367 -20.465000152587887 L 62.84700012207031 -20.3430004119873 L 62.93000030517578 -20.232000350952145 L 63.02000045776367 -20.129999160766598 L 63.117000579833984 -20.03800010681152 L 63.22700119018555 -19.955999374389645 L 63.34199905395508 -19.88199996948242 L 63.4630012512207 -19.818000793457028 L 63.487998962402344 -19.806888580322262 L 63.5890007019043 -19.76199913024902 L 63.72100067138672 -19.715000152587887 L 63.85900115966797 -19.677999496459957 L 64 -19.64100074768066 L 64.14399719238281 -19.611000061035153 L 64.29000091552734 -19.587999343872067 L 64.43800354003906 -19.57099914550781 L 64.51200103759766 -19.566066741943356 L 64.58799743652344 -19.561000823974606 L 64.74099731445312 -19.556999206542965 L 64.89900207519531 -19.561000823974606 L 65.0530014038086 -19.57099914550781 L 65.2020034790039 -19.587999343872067 L 65.34700012207031 -19.611000061035153 L 65.48699951171875 -19.64100074768066 L 65.53600311279297 -19.654331207275387 L 65.62300109863281 -19.677999496459957 L 65.76000213623047 -19.715000152587887 L 65.89199829101562 -19.76199913024902 L 66.01899719238281 -19.818000793457028 L 66.13899993896484 -19.88199996948242 L 66.25499725341797 -19.955999374389645 L 66.36399841308594 -20.03800010681152 L 66.46099853515625 -20.129999160766598 L 66.5510025024414 -20.232000350952145 L 66.63500213623047 -20.3430004119873 L 66.71199798583984 -20.465000152587887 L 66.71995544433594 -20.479999542236325 L 66.78199768066406 -20.59700012207031 L 66.84500122070312 -20.739000320434567 L 66.90699768066406 -20.885000228881832 L 66.95700073242188 -21.044000625610348 L 66.99600219726562 -21.214000701904293 L 67.02300262451172 -21.396999359130856 L 67.04000091552734 -21.5930004119873 L 67.0459976196289 -21.799999237060543 L 67.04000091552734 -22.00099945068359 L 67.02300262451172 -22.1919994354248 L 66.99600219726562 -22.37100028991699 L 66.95955657958984 -22.527999877929684 L 66.95700073242188 -22.538999557495114 L 66.90699768066406 -22.694999694824215 L 66.84500122070312 -22.84099960327148 L 66.78199768066406 -22.97699928283691 L 66.71199798583984 -23.10400009155273 L 66.63500213623047 -23.22200012207031 L 66.55999755859375 -23.319320678710934 L 66.5510025024414 -23.330999374389645 L 66.46099853515625 -23.43099975585937 L 66.36399841308594 -23.521999359130856 L 66.25499725341797 -23.60400009155273 L 66.13899993896484 -23.677999496459957 L 66.01899719238281 -23.74200057983398 L 65.89199829101562 -23.798000335693356 L 65.76323699951172 -23.84384727478027 L 65.76000213623047 -23.84499931335449 L 65.62300109863281 -23.88199996948242 M 57.14400100708008 -33.67800140380859 L 57.28200149536133 -33.71500015258788 L 57.34400177001953 -33.737075805664055 L 57.41400146484375 -33.76200103759765 L 57.540000915527344 -33.818000793457024 L 57.6609992980957 -33.881999969482415 L 57.7760009765625 -33.956001281738274 L 57.88600158691406 -34.03799819946288 L 57.983001708984375 -34.13000106811523 L 57.99700164794922 -34.14586639404296 L 58.073001861572266 -34.23199844360351 L 58.15700149536133 -34.342998504638665 L 58.233001708984375 -34.46500015258788 L 58.303001403808594 -34.597000122070305 L 58.367000579833984 -34.73899841308593 L 58.399169921875 -34.81600189208984 L 58.428001403808594 -34.884998321533196 L 58.47800064086914 -35.04399871826171 L 58.516998291015625 -35.21400070190429 L 58.54499816894531 -35.39699935913085 L 58.5620002746582 -35.592998504638665 L 58.56700134277344 -35.79999923706054 L 58.5620002746582 -36.00099945068359 L 58.54499816894531 -36.19200134277343 L 58.516998291015625 -36.37099838256835 L 58.47800064086914 -36.53900146484374 L 58.428001403808594 -36.69499969482421 L 58.367000579833984 -36.84099960327148 L 58.356178283691406 -36.86399841308593 L 58.303001403808594 -36.97700119018554 L 58.233001708984375 -37.10400009155273 L 58.15700149536133 -37.222000122070305 L 58.073001861572266 -37.331001281738274 L 57.99700164794922 -37.41544342041015 L 57.983001708984375 -37.43099975585937 L 57.88600158691406 -37.52199935913085 L 57.7760009765625 -37.60400009155273 L 57.6609992980957 -37.67800140380859 L 57.540000915527344 -37.74200057983398 L 57.41400146484375 -37.79800033569335 L 57.34400177001953 -37.822925567626946 L 57.28847885131836 -37.842693328857415 L 57.28200149536133 -37.84500122070312 L 57.14400100708008 -37.881999969482415 L 57.007999420166016 -37.91899871826171 L 56.86800003051758 -37.94900131225585 L 56.722999572753906 -37.972000122070305 L 56.57400131225586 -37.98899841308593 L 56.42100143432617 -37.9990005493164 L 56.31999969482422 -38.001541137695305 L 56.262001037597656 -38.002998352050774 L 56.11000061035156 -37.9990005493164 L 55.959999084472656 -37.98899841308593 L 55.81100082397461 -37.972000122070305 L 55.66600036621094 -37.94900131225585 L 55.52199935913086 -37.91899871826171 L 55.380001068115234 -37.881999969482415 L 55.29600143432617 -37.85931396484374 L 55.24300003051758 -37.84500122070312 L 55.111000061035156 -37.79800033569335 L 54.98500061035156 -37.74200057983398 L 54.86399841308594 -37.67800140380859 L 54.749000549316406 -37.60400009155273 L 54.638999938964844 -37.52199935913085 L 54.54199981689453 -37.43099975585937 L 54.45199966430664 -37.331001281738274 L 54.36800003051758 -37.222000122070305 L 54.29100036621094 -37.10400009155273 L 54.22100067138672 -36.97700119018554 L 54.16865539550781 -36.86399841308593 L 54.15800094604492 -36.84099960327148 L 54.10900115966797 -36.69499969482421 L 54.069000244140625 -36.53900146484374 L 54.03799819946289 -36.37099838256835 L 54.01499938964844 -36.19200134277343 L 54.00199890136719 -36.00099945068359 L 53.99700164794922 -35.79999923706054 L 54.00199890136719 -35.592998504638665 L 54.01499938964844 -35.39699935913085 L 54.03799819946289 -35.21400070190429 L 54.069000244140625 -35.04399871826171 L 54.10900115966797 -34.884998321533196 L 54.13215637207031 -34.81600189208984 L 54.15800094604492 -34.73899841308593 L 54.22100067138672 -34.597000122070305 L 54.29100036621094 -34.46500015258788 L 54.36800003051758 -34.342998504638665 L 54.45199966430664 -34.23199844360351 L 54.54199981689453 -34.13000106811523 L 54.638999938964844 -34.03799819946288 L 54.749000549316406 -33.956001281738274 L 54.86399841308594 -33.881999969482415 L 54.98500061035156 -33.818000793457024 L 55.111000061035156 -33.76200103759765 L 55.24300003051758 -33.71500015258788 L 55.29600143432617 -33.70068740844726 L 55.380001068115234 -33.67800140380859 L 55.52199935913086 -33.640998840332024 L 55.66600036621094 -33.61100006103515 L 55.81100082397461 -33.588001251220696 L 55.959999084472656 -33.570999145507805 L 56.11000061035156 -33.5610008239746 L 56.262001037597656 -33.557998657226555 L 56.31999969482422 -33.55909347534179 L 56.42100143432617 -33.5610008239746 L 56.57400131225586 -33.570999145507805 L 56.722999572753906 -33.588001251220696 L 56.86800003051758 -33.61100006103515 L 56.99803924560547 -33.63886642456054 L 57.007999420166016 -33.640998840332024 L 57.14400100708008 -33.67800140380859 M 61.14500045776367 -12.678000450134274 L 61.28200149536133 -12.715000152587887 L 61.41400146484375 -12.762000083923336 L 61.439998626708984 -12.77355575561523 L 61.540000915527344 -12.817999839782711 L 61.6609992980957 -12.881999969482418 L 61.7760009765625 -12.956000328063961 L 61.88600158691406 -13.03800010681152 L 61.983001708984375 -13.130000114440914 L 62.073001861572266 -13.232000350952145 L 62.15700149536133 -13.343000411987301 L 62.23400115966797 -13.465000152587887 L 62.30400085449219 -13.597000122070309 L 62.367000579833984 -13.739000320434567 L 62.428001403808594 -13.885000228881832 L 62.479000091552734 -14.043999671936032 L 62.518001556396484 -14.213999748229977 L 62.5359992980957 -14.33600044250488 L 62.54499816894531 -14.397000312805172 L 62.5620002746582 -14.593000411987301 L 62.56800079345703 -14.80000019073486 L 62.5620002746582 -15.001000404357907 L 62.54499816894531 -15.192000389099118 L 62.518001556396484 -15.371000289916989 L 62.479000091552734 -15.538999557495114 L 62.428001403808594 -15.694999694824215 L 62.367000579833984 -15.84099960327148 L 62.30400085449219 -15.977000236511227 L 62.23400115966797 -16.10400009155273 L 62.15700149536133 -16.22200012207031 L 62.073001861572266 -16.330999374389645 L 62.025299072265625 -16.38400077819824 L 61.983001708984375 -16.43099975585937 L 61.88600158691406 -16.521999359130856 L 61.7760009765625 -16.60400009155273 L 61.6609992980957 -16.677999496459957 L 61.540000915527344 -16.74200057983398 L 61.439998626708984 -16.786443710327145 L 61.41400146484375 -16.798000335693356 L 61.285240173339844 -16.84384727478027 L 61.28200149536133 -16.84499931335449 L 61.14500045776367 -16.88199996948242 L 61.00899887084961 -16.919000625610348 L 60.86800003051758 -16.948999404907223 L 60.7239990234375 -16.97200012207031 L 60.57400131225586 -16.989000320434567 L 60.42100143432617 -16.999000549316403 L 60.41600036621094 -16.99912643432617 L 60.26300048828125 -17.00300025939941 L 60.11000061035156 -16.999000549316403 L 59.959999084472656 -16.989000320434567 L 59.8120002746582 -16.97200012207031 L 59.66600036621094 -16.948999404907223 L 59.52199935913086 -16.919000625610348 L 59.391998291015625 -16.884885787963864 L 59.38100051879883 -16.88199996948242 L 59.24300003051758 -16.84499931335449 L 59.111000061035156 -16.798000335693356 L 58.98500061035156 -16.74200057983398 L 58.86399841308594 -16.677999496459957 L 58.749000549316406 -16.60400009155273 L 58.638999938964844 -16.521999359130856 L 58.54199981689453 -16.43099975585937 L 58.499698638916016 -16.38400077819824 L 58.45199966430664 -16.330999374389645 L 58.36800003051758 -16.22200012207031 L 58.29100036621094 -16.10400009155273 L 58.22100067138672 -15.977000236511227 L 58.15800094604492 -15.84099960327148 L 58.10900115966797 -15.694999694824215 L 58.069000244140625 -15.538999557495114 L 58.03799819946289 -15.371000289916989 L 58.01499938964844 -15.192000389099118 L 58.00199890136719 -15.001000404357907 L 57.99700164794922 -14.80000019073486 L 58.00199890136719 -14.593000411987301 L 58.01499938964844 -14.397000312805172 L 58.022666931152344 -14.33600044250488 L 58.03799819946289 -14.213999748229977 L 58.069000244140625 -14.043999671936032 L 58.10900115966797 -13.885000228881832 L 58.15800094604492 -13.739000320434567 L 58.22100067138672 -13.597000122070309 L 58.29100036621094 -13.465000152587887 L 58.36800003051758 -13.343000411987301 L 58.39146041870117 -13.3120002746582 L 58.45199966430664 -13.232000350952145 L 58.54199981689453 -13.130000114440914 L 58.638999938964844 -13.03800010681152 L 58.749000549316406 -12.956000328063961 L 58.86399841308594 -12.881999969482418 L 58.98500061035156 -12.817999839782711 L 59.111000061035156 -12.762000083923336 L 59.24300003051758 -12.715000152587887 L 59.38100051879883 -12.678000450134274 L 59.391998291015625 -12.675113677978512 L 59.52199935913086 -12.640999794006344 L 59.66600036621094 -12.611000061035153 L 59.8120002746582 -12.588000297546383 L 59.959999084472656 -12.571000099182125 L 60.11000061035156 -12.56099987030029 L 60.26300048828125 -12.557999610900875 L 60.41600036621094 -12.560905456542965 L 60.42100143432617 -12.56099987030029 L 60.57400131225586 -12.571000099182125 L 60.7239990234375 -12.588000297546383 L 60.86800003051758 -12.611000061035153 L 61.00428771972656 -12.639997482299801 L 61.00899887084961 -12.640999794006344 L 61.14500045776367 -12.678000450134274 M 61.382999420166016 -26.677999496459954 L 61.439998626708984 -26.69328308105468 L 61.520999908447266 -26.715000152587884 L 61.652000427246094 -26.761999130249016 L 61.77899932861328 -26.818000793457024 L 61.900001525878906 -26.881999969482415 L 62.01499938964844 -26.95599937438964 L 62.125 -27.038000106811516 L 62.22200012207031 -27.129999160766594 L 62.3120002746582 -27.23200035095214 L 62.39500045776367 -27.343000411987298 L 62.47200012207031 -27.465000152587884 L 62.54199981689453 -27.597000122070305 L 62.56498718261719 -27.64800071716308 L 62.60599899291992 -27.739000320434563 L 62.66699981689453 -27.88500022888183 L 62.71699905395508 -28.044000625610344 L 62.75600051879883 -28.21400070190429 L 62.784000396728516 -28.396999359130852 L 62.80099868774414 -28.593000411987298 L 62.80290985107422 -28.67200088500976 L 62.805999755859375 -28.79999923706054 L 62.80099868774414 -29.000999450683587 L 62.784000396728516 -29.191999435424798 L 62.75600051879883 -29.371000289916985 L 62.71699905395508 -29.53899955749511 L 62.66699981689453 -29.69499969482421 L 62.66658401489258 -29.695999145507805 L 62.60599899291992 -29.840999603271477 L 62.54199981689453 -29.976999282836907 L 62.47200012207031 -30.104000091552727 L 62.39500045776367 -30.222000122070305 L 62.3120002746582 -30.33099937438964 L 62.22200012207031 -30.430999755859368 L 62.125 -30.521999359130852 L 62.01499938964844 -30.604000091552727 L 61.900001525878906 -30.677999496459954 L 61.820594787597656 -30.719999313354485 L 61.77899932861328 -30.742000579833977 L 61.652000427246094 -30.798000335693352 L 61.520999908447266 -30.844999313354485 L 61.439998626708984 -30.86671829223632 L 61.382999420166016 -30.881999969482415 L 61.24700164794922 -30.919000625610344 L 61.106998443603516 -30.94899940490722 L 60.96200180053711 -30.972000122070305 L 60.8129997253418 -30.989000320434563 L 60.659000396728516 -30.9990005493164 L 60.500999450683594 -31.003000259399407 L 60.41600036621094 -31.00077819824218 L 60.347999572753906 -30.9990005493164 L 60.198001861572266 -30.989000320434563 L 60.04999923706055 -30.972000122070305 L 59.90399932861328 -30.94899940490722 L 59.7599983215332 -30.919000625610344 L 59.61899948120117 -30.881999969482415 L 59.481998443603516 -30.844999313354485 L 59.391998291015625 -30.812953948974602 L 59.349998474121094 -30.798000335693352 L 59.222999572753906 -30.742000579833977 L 59.1814079284668 -30.719999313354485 L 59.10200119018555 -30.677999496459954 L 58.98699951171875 -30.604000091552727 L 58.87699890136719 -30.521999359130852 L 58.78099822998047 -30.430999755859368 L 58.689998626708984 -30.33099937438964 L 58.606998443603516 -30.222000122070305 L 58.529998779296875 -30.104000091552727 L 58.459999084472656 -29.976999282836907 L 58.395999908447266 -29.840999603271477 L 58.34733581542969 -29.695999145507805 L 58.34700012207031 -29.69499969482421 L 58.30699920654297 -29.53899955749511 L 58.2760009765625 -29.371000289916985 L 58.25400161743164 -29.191999435424798 L 58.2400016784668 -29.000999450683587 L 58.236000061035156 -28.79999923706054 L 58.23847198486328 -28.67200088500976 L 58.2400016784668 -28.593000411987298 L 58.25400161743164 -28.396999359130852 L 58.2760009765625 -28.21400070190429 L 58.30699920654297 -28.044000625610344 L 58.34700012207031 -27.88500022888183 L 58.395999908447266 -27.739000320434563 L 58.437015533447266 -27.64800071716308 L 58.459999084472656 -27.597000122070305 L 58.529998779296875 -27.465000152587884 L 58.606998443603516 -27.343000411987298 L 58.689998626708984 -27.23200035095214 L 58.78099822998047 -27.129999160766594 L 58.87699890136719 -27.038000106811516 L 58.98699951171875 -26.95599937438964 L 59.10200119018555 -26.881999969482415 L 59.222999572753906 -26.818000793457024 L 59.349998474121094 -26.761999130249016 L 59.391998291015625 -26.747045516967766 L 59.481998443603516 -26.715000152587884 L 59.61899948120117 -26.677999496459954 L 59.7599983215332 -26.641000747680657 L 59.84159851074219 -26.6240005493164 L 59.90399932861328 -26.61100006103515 L 60.04999923706055 -26.587999343872063 L 60.198001861572266 -26.570999145507805 L 60.347999572753906 -26.561000823974602 L 60.500999450683594 -26.55699920654296 L 60.659000396728516 -26.561000823974602 L 60.8129997253418 -26.570999145507805 L 60.96200180053711 -26.587999343872063 L 61.106998443603516 -26.61100006103515 L 61.167667388916016 -26.6240005493164 L 61.237037658691406 -26.638864517211907 L 61.24700164794922 -26.641000747680657 L 61.382999420166016 -26.677999496459954 M 57.14400100708008 -19.677999496459957 L 57.28200149536133 -19.715000152587887 L 57.34400177001953 -19.73707580566406 L 57.41400146484375 -19.76199913024902 L 57.540000915527344 -19.818000793457028 L 57.6609992980957 -19.88199996948242 L 57.7760009765625 -19.955999374389645 L 57.88600158691406 -20.03800010681152 L 57.983001708984375 -20.129999160766598 L 57.99700164794922 -20.145866394042965 L 58.073001861572266 -20.232000350952145 L 58.15700149536133 -20.3430004119873 L 58.233001708984375 -20.465000152587887 L 58.236000061035156 -20.47065734863281 L 58.2409553527832 -20.479999542236325 L 58.303001403808594 -20.59700012207031 L 58.367000579833984 -20.739000320434567 L 58.428001403808594 -20.885000228881832 L 58.47800064086914 -21.044000625610348 L 58.516998291015625 -21.214000701904293 L 58.54499816894531 -21.396999359130856 L 58.5620002746582 -21.5930004119873 L 58.56700134277344 -21.799999237060543 L 58.5620002746582 -22.00099945068359 L 58.54499816894531 -22.1919994354248 L 58.516998291015625 -22.37100028991699 L 58.480552673339844 -22.527999877929684 L 58.47800064086914 -22.538999557495114 L 58.428001403808594 -22.694999694824215 L 58.367000579833984 -22.84099960327148 L 58.303001403808594 -22.97699928283691 L 58.236000061035156 -23.098556518554684 L 58.233001708984375 -23.10400009155273 L 58.15700149536133 -23.22200012207031 L 58.073001861572266 -23.330999374389645 L 57.99700164794922 -23.415445327758786 L 57.983001708984375 -23.43099975585937 L 57.88600158691406 -23.521999359130856 L 57.7760009765625 -23.60400009155273 L 57.6609992980957 -23.677999496459957 L 57.540000915527344 -23.74200057983398 L 57.41400146484375 -23.798000335693356 L 57.34400177001953 -23.822923660278317 L 57.28847885131836 -23.84269332885742 L 57.28200149536133 -23.84499931335449 L 57.14400100708008 -23.88199996948242 L 57.007999420166016 -23.919000625610348 L 56.86800003051758 -23.948999404907223 L 56.722999572753906 -23.97200012207031 L 56.57400131225586 -23.989000320434567 L 56.42100143432617 -23.999000549316403 L 56.31999969482422 -24.001541137695305 L 56.262001037597656 -24.003000259399407 L 56.11000061035156 -23.999000549316403 L 55.959999084472656 -23.989000320434567 L 55.81100082397461 -23.97200012207031 L 55.66600036621094 -23.948999404907223 L 55.52199935913086 -23.919000625610348 L 55.380001068115234 -23.88199996948242 L 55.29600143432617 -23.859313964843746 L 55.24300003051758 -23.84499931335449 L 55.111000061035156 -23.798000335693356 L 54.98500061035156 -23.74200057983398 L 54.86399841308594 -23.677999496459957 L 54.749000549316406 -23.60400009155273 L 54.67924499511719 -23.552000045776364 L 54.638999938964844 -23.521999359130856 L 54.54199981689453 -23.43099975585937 L 54.45199966430664 -23.330999374389645 L 54.36800003051758 -23.22200012207031 L 54.29100036621094 -23.10400009155273 L 54.22100067138672 -22.97699928283691 L 54.15800094604492 -22.84099960327148 L 54.10900115966797 -22.694999694824215 L 54.069000244140625 -22.538999557495114 L 54.06697082519531 -22.527999877929684 L 54.03799819946289 -22.37100028991699 L 54.01499938964844 -22.1919994354248 L 54.00199890136719 -22.00099945068359 L 53.99700164794922 -21.799999237060543 L 54.00199890136719 -21.5930004119873 L 54.01499938964844 -21.396999359130856 L 54.03799819946289 -21.214000701904293 L 54.069000244140625 -21.044000625610348 L 54.10900115966797 -20.885000228881832 L 54.15800094604492 -20.739000320434567 L 54.22100067138672 -20.59700012207031 L 54.28304672241211 -20.479999542236325 L 54.29100036621094 -20.465000152587887 L 54.36800003051758 -20.3430004119873 L 54.45199966430664 -20.232000350952145 L 54.54199981689453 -20.129999160766598 L 54.638999938964844 -20.03800010681152 L 54.749000549316406 -19.955999374389645 L 54.86399841308594 -19.88199996948242 L 54.98500061035156 -19.818000793457028 L 55.111000061035156 -19.76199913024902 L 55.24300003051758 -19.715000152587887 L 55.29600143432617 -19.70068550109863 L 55.380001068115234 -19.677999496459957 L 55.52199935913086 -19.64100074768066 L 55.66600036621094 -19.611000061035153 L 55.81100082397461 -19.587999343872067 L 55.959999084472656 -19.57099914550781 L 56.11000061035156 -19.561000823974606 L 56.262001037597656 -19.556999206542965 L 56.31999969482422 -19.558458328247067 L 56.42100143432617 -19.561000823974606 L 56.57400131225586 -19.57099914550781 L 56.722999572753906 -19.587999343872067 L 56.86800003051758 -19.611000061035153 L 56.99803924560547 -19.63886451721191 L 57.007999420166016 -19.64100074768066 L 57.14400100708008 -19.677999496459957 M 74.95500183105469 -14.80000019073486 L 74.95999908447266 -14.593000411987301 L 74.9729995727539 -14.397000312805172 L 74.98033142089844 -14.33600044250488 L 74.99500274658203 -14.213999748229977 L 75.0270004272461 -14.043999671936032 L 75.06700134277344 -13.885000228881832 L 75.11599731445312 -13.739000320434567 L 75.17900085449219 -13.597000122070309 L 75.2490005493164 -13.465000152587887 L 75.32599639892578 -13.343000411987301 L 75.41000366210938 -13.232000350952145 L 75.5 -13.130000114440914 L 75.59700012207031 -13.03800010681152 L 75.70600128173828 -12.956000328063961 L 75.7760009765625 -12.911344528198239 L 75.8219985961914 -12.881999969482418 L 75.94300079345703 -12.817999839782711 L 76.06900024414062 -12.762000083923336 L 76.20099639892578 -12.715000152587887 L 76.33799743652344 -12.678000450134274 L 76.4800033569336 -12.640999794006344 L 76.6240005493164 -12.611000061035153 L 76.76899719238281 -12.588000297546383 L 76.80000305175781 -12.584463119506832 L 76.91799926757812 -12.571000099182125 L 77.06800079345703 -12.56099987030029 L 77.22000122070312 -12.557999610900875 L 77.37899780273438 -12.56099987030029 L 77.53199768066406 -12.571000099182125 L 77.68099975585938 -12.588000297546383 L 77.8239974975586 -12.61068248748779 L 77.82599639892578 -12.611000061035153 L 77.95246887207031 -12.637907981872555 L 77.96700286865234 -12.640999794006344 L 78.10199737548828 -12.678000450134274 L 78.23999786376953 -12.715000152587887 L 78.37200164794922 -12.762000083923336 L 78.49800109863281 -12.817999839782711 L 78.61900329589844 -12.881999969482418 L 78.73400115966797 -12.956000328063961 L 78.84400177001953 -13.03800010681152 L 78.94100189208984 -13.130000114440914 L 79.03099822998047 -13.232000350952145 L 79.09153747558594 -13.3120002746582 L 79.11499786376953 -13.343000411987301 L 79.19100189208984 -13.465000152587887 L 79.26200103759766 -13.597000122070309 L 79.32499694824219 -13.739000320434567 L 79.38600158691406 -13.885000228881832 L 79.43599700927734 -14.043999671936032 L 79.4749984741211 -14.213999748229977 L 79.49366760253906 -14.33600044250488 L 79.50299835205078 -14.397000312805172 L 79.5199966430664 -14.593000411987301 L 79.5260009765625 -14.80000019073486 L 79.5199966430664 -15.001000404357907 L 79.50299835205078 -15.192000389099118 L 79.4749984741211 -15.371000289916989 L 79.43599700927734 -15.538999557495114 L 79.38600158691406 -15.694999694824215 L 79.32499694824219 -15.84099960327148 L 79.26200103759766 -15.977000236511227 L 79.19100189208984 -16.10400009155273 L 79.11499786376953 -16.22200012207031 L 79.03099822998047 -16.330999374389645 L 78.9832992553711 -16.38400077819824 L 78.94100189208984 -16.43099975585937 L 78.84400177001953 -16.521999359130856 L 78.73400115966797 -16.60400009155273 L 78.61900329589844 -16.677999496459957 L 78.49800109863281 -16.74200057983398 L 78.37200164794922 -16.798000335693356 L 78.25003051757812 -16.841428756713864 L 78.23999786376953 -16.84499931335449 L 78.10199737548828 -16.88199996948242 L 77.96700286865234 -16.919000625610348 L 77.82599639892578 -16.948999404907223 L 77.8239974975586 -16.949317932128903 L 77.68099975585938 -16.97200012207031 L 77.53199768066406 -16.989000320434567 L 77.37899780273438 -16.999000549316403 L 77.22000122070312 -17.00300025939941 L 77.06800079345703 -16.999000549316403 L 76.91799926757812 -16.989000320434567 L 76.80000305175781 -16.975536346435543 L 76.76899719238281 -16.97200012207031 L 76.6240005493164 -16.948999404907223 L 76.4800033569336 -16.919000625610348 L 76.33799743652344 -16.88199996948242 L 76.20099639892578 -16.84499931335449 L 76.06900024414062 -16.798000335693356 L 75.94300079345703 -16.74200057983398 L 75.8219985961914 -16.677999496459957 L 75.7760009765625 -16.648654937744137 L 75.70600128173828 -16.60400009155273 L 75.59700012207031 -16.521999359130856 L 75.5 -16.43099975585937 L 75.45770263671875 -16.38400077819824 L 75.41000366210938 -16.330999374389645 L 75.32599639892578 -16.22200012207031 L 75.2490005493164 -16.10400009155273 L 75.17900085449219 -15.977000236511227 L 75.11599731445312 -15.84099960327148 L 75.06700134277344 -15.694999694824215 L 75.0270004272461 -15.538999557495114 L 74.99500274658203 -15.371000289916989 L 74.9729995727539 -15.192000389099118 L 74.95999908447266 -15.001000404357907 L 74.95500183105469 -14.80000019073486 M 68.09300231933594 -0.9620000123977658 L 67.48899841308594 -0.8420000076293942 L 66.90699768066406 -0.6449999809265134 L 66.3550033569336 -0.37200000882148726 L 65.84400177001953 -0.0309999994933604 L 65.80864715576172 1.1102230246251565e-16 L 65.53600311279297 0.23908206820487982 L 65.38099670410156 0.375 L 64.97599792480469 0.837000012397766 L 64.63400268554688 1.3489999771118164 L 64.36199951171875 1.8999999761581416 L 64.16400146484375 2.483000040054321 L 64.04399871826172 3.0859999656677237 L 64.00399780273438 3.700000047683715 L 64.04399871826172 4.314000129699706 L 64.16400146484375 4.91699981689453 L 64.36199951171875 5.499999999999999 L 64.63400268554688 6.0510001182556135 L 64.97599792480469 6.563000202178953 L 65.38099670410156 7.02500009536743 L 65.53600311279297 7.160917758941649 L 65.84400177001953 7.431000232696531 L 66.3550033569336 7.771999835968016 L 66.90699768066406 8.045000076293944 L 67.3412857055664 8.19200038909912 L 67.48899841308594 8.241999626159666 L 68.09300231933594 8.362000465393065 L 68.70600128173828 8.402999877929686 L 69 8.383368492126463 L 69.31999969482422 8.362000465393065 L 69.9229965209961 8.241999626159666 L 70.07096862792969 8.19200038909912 L 70.50599670410156 8.045000076293944 L 71.05799865722656 7.771999835968016 L 71.56900024414062 7.431000232696531 L 72.03099822998047 7.02500009536743 L 72.43699645996094 6.563000202178953 L 72.77899932861328 6.0510001182556135 L 73.0510025024414 5.499999999999999 L 73.2490005493164 4.91699981689453 L 73.36900329589844 4.314000129699706 L 73.3832015991211 4.09600019454956 L 73.40899658203125 3.700000047683715 L 73.36900329589844 3.0859999656677237 L 73.2490005493164 2.483000040054321 L 73.0510025024414 1.8999999761581416 L 72.77899932861328 1.3489999771118164 L 72.43699645996094 0.837000012397766 L 72.03099822998047 0.375 L 71.60427856445312 1.1102230246251565e-16 L 71.56900024414062 -0.0309999994933604 L 71.05799865722656 -0.37200000882148726 L 70.50599670410156 -0.6449999809265134 L 69.9229965209961 -0.8420000076293942 L 69.31999969482422 -0.9620000123977658 L 68.70600128173828 -1.0030000209808345 L 68.09300231933594 -0.9620000123977658 M 76.86199951171875 -26.61100006103515 L 77.00800323486328 -26.587999343872063 L 77.15599822998047 -26.570999145507805 L 77.30599975585938 -26.561000823974602 L 77.45899963378906 -26.55699920654296 L 77.61699676513672 -26.561000823974602 L 77.77100372314453 -26.570999145507805 L 77.8239974975586 -26.577047348022454 L 77.91999816894531 -26.587999343872063 L 78.06500244140625 -26.61100006103515 L 78.12566375732422 -26.6240005493164 L 78.20015716552734 -26.639963150024407 L 78.20500183105469 -26.641000747680657 L 78.34100341796875 -26.677999496459954 L 78.47799682617188 -26.715000152587884 L 78.61000061035156 -26.761999130249016 L 78.73699951171875 -26.818000793457024 L 78.85800170898438 -26.881999969482415 L 78.9729995727539 -26.95599937438964 L 79.08300018310547 -27.038000106811516 L 79.17900085449219 -27.129999160766594 L 79.2699966430664 -27.23200035095214 L 79.35299682617188 -27.343000411987298 L 79.43000030517578 -27.465000152587884 L 79.5 -27.597000122070305 L 79.52298736572266 -27.64800071716308 L 79.56400299072266 -27.739000320434563 L 79.625 -27.88500022888183 L 79.67500305175781 -28.044000625610344 L 79.71399688720703 -28.21400070190429 L 79.74199676513672 -28.396999359130852 L 79.75800323486328 -28.593000411987298 L 79.76029205322266 -28.67200088500976 L 79.76399993896484 -28.79999923706054 L 79.75800323486328 -29.000999450683587 L 79.74199676513672 -29.191999435424798 L 79.71399688720703 -29.371000289916985 L 79.67500305175781 -29.53899955749511 L 79.625 -29.69499969482421 L 79.62458038330078 -29.695999145507805 L 79.56400299072266 -29.840999603271477 L 79.5 -29.976999282836907 L 79.43000030517578 -30.104000091552727 L 79.35299682617188 -30.222000122070305 L 79.2699966430664 -30.33099937438964 L 79.17900085449219 -30.430999755859368 L 79.08300018310547 -30.521999359130852 L 78.9729995727539 -30.604000091552727 L 78.85800170898438 -30.677999496459954 L 78.77859497070312 -30.719999313354485 L 78.73699951171875 -30.742000579833977 L 78.61000061035156 -30.798000335693352 L 78.48123931884766 -30.843847274780266 L 78.47799682617188 -30.844999313354485 L 78.34100341796875 -30.881999969482415 L 78.20500183105469 -30.919000625610344 L 78.06500244140625 -30.94899940490722 L 77.91999816894531 -30.972000122070305 L 77.8239974975586 -30.982952117919915 L 77.77100372314453 -30.989000320434563 L 77.61699676513672 -30.9990005493164 L 77.45899963378906 -31.003000259399407 L 77.30599975585938 -30.9990005493164 L 77.15599822998047 -30.989000320434563 L 77.00800323486328 -30.972000122070305 L 76.86199951171875 -30.94899940490722 L 76.71800231933594 -30.919000625610344 L 76.5770034790039 -30.881999969482415 L 76.43900299072266 -30.844999313354485 L 76.30699920654297 -30.798000335693352 L 76.18099975585938 -30.742000579833977 L 76.139404296875 -30.719999313354485 L 76.05999755859375 -30.677999496459954 L 75.94499969482422 -30.604000091552727 L 75.83499908447266 -30.521999359130852 L 75.7760009765625 -30.466650009155266 L 75.73799896240234 -30.430999755859368 L 75.64800262451172 -30.33099937438964 L 75.56500244140625 -30.222000122070305 L 75.48799896240234 -30.104000091552727 L 75.41799926757812 -29.976999282836907 L 75.35399627685547 -29.840999603271477 L 75.30500030517578 -29.69499969482421 L 75.26499938964844 -29.53899955749511 L 75.23400115966797 -29.371000289916985 L 75.21199798583984 -29.191999435424798 L 75.197998046875 -29.000999450683587 L 75.19400024414062 -28.79999923706054 L 75.19647216796875 -28.67200088500976 L 75.197998046875 -28.593000411987298 L 75.21199798583984 -28.396999359130852 L 75.23400115966797 -28.21400070190429 L 75.26499938964844 -28.044000625610344 L 75.30500030517578 -27.88500022888183 L 75.35399627685547 -27.739000320434563 L 75.41799926757812 -27.597000122070305 L 75.48799896240234 -27.465000152587884 L 75.56500244140625 -27.343000411987298 L 75.64800262451172 -27.23200035095214 L 75.73799896240234 -27.129999160766594 L 75.7760009765625 -27.09395790100097 L 75.83499908447266 -27.038000106811516 L 75.94499969482422 -26.95599937438964 L 76.05999755859375 -26.881999969482415 L 76.18099975585938 -26.818000793457024 L 76.30699920654297 -26.761999130249016 L 76.43900299072266 -26.715000152587884 L 76.5770034790039 -26.677999496459954 L 76.71800231933594 -26.641000747680657 L 76.79959869384766 -26.6240005493164 L 76.86199951171875 -26.61100006103515 M 72.76799774169922 -19.587999343872067 L 72.91600036621094 -19.57099914550781 L 73.06700134277344 -19.561000823974606 L 73.21900177001953 -19.556999206542965 L 73.37699890136719 -19.561000823974606 L 73.53099822998047 -19.57099914550781 L 73.68000030517578 -19.587999343872067 L 73.72799682617188 -19.595613479614254 L 73.82499694824219 -19.611000061035153 L 73.95503997802734 -19.63886451721191 L 73.96499633789062 -19.64100074768066 L 74.10099792480469 -19.677999496459957 L 74.23899841308594 -19.715000152587887 L 74.37100219726562 -19.76199913024902 L 74.49700164794922 -19.818000793457028 L 74.61799621582031 -19.88199996948242 L 74.73300170898438 -19.955999374389645 L 74.84300231933594 -20.03800010681152 L 74.94000244140625 -20.129999160766598 L 75.02999877929688 -20.232000350952145 L 75.11299896240234 -20.3430004119873 L 75.19000244140625 -20.465000152587887 L 75.19795227050781 -20.479999542236325 L 75.26000213623047 -20.59700012207031 L 75.3239974975586 -20.739000320434567 L 75.38500213623047 -20.885000228881832 L 75.43499755859375 -21.044000625610348 L 75.4739990234375 -21.214000701904293 L 75.50199890136719 -21.396999359130856 L 75.51899719238281 -21.5930004119873 L 75.52400207519531 -21.799999237060543 L 75.51899719238281 -22.00099945068359 L 75.50199890136719 -22.1919994354248 L 75.4739990234375 -22.37100028991699 L 75.43755340576172 -22.527999877929684 L 75.43499755859375 -22.538999557495114 L 75.38500213623047 -22.694999694824215 L 75.3239974975586 -22.84099960327148 L 75.26000213623047 -22.97699928283691 L 75.19000244140625 -23.10400009155273 L 75.11299896240234 -23.22200012207031 L 75.02999877929688 -23.330999374389645 L 74.94000244140625 -23.43099975585937 L 74.84300231933594 -23.521999359130856 L 74.75199890136719 -23.589836120605465 L 74.73300170898438 -23.60400009155273 L 74.61799621582031 -23.677999496459957 L 74.49700164794922 -23.74200057983398 L 74.37100219726562 -23.798000335693356 L 74.24547576904297 -23.84269332885742 L 74.23899841308594 -23.84499931335449 L 74.10099792480469 -23.88199996948242 L 73.96499633789062 -23.919000625610348 L 73.82499694824219 -23.948999404907223 L 73.72799682617188 -23.96438598632812 L 73.68000030517578 -23.97200012207031 L 73.53099822998047 -23.989000320434567 L 73.37699890136719 -23.999000549316403 L 73.21900177001953 -24.003000259399407 L 73.06700134277344 -23.999000549316403 L 72.91600036621094 -23.989000320434567 L 72.76799774169922 -23.97200012207031 L 72.7040023803711 -23.961917877197262 L 72.62200164794922 -23.948999404907223 L 72.47899627685547 -23.919000625610348 L 72.33699798583984 -23.88199996948242 L 72.19999694824219 -23.84499931335449 L 72.06800079345703 -23.798000335693356 L 71.94100189208984 -23.74200057983398 L 71.82099914550781 -23.677999496459957 L 71.70500183105469 -23.60400009155273 L 71.68000030517578 -23.585191726684567 L 71.59600067138672 -23.521999359130856 L 71.4990005493164 -23.43099975585937 L 71.40899658203125 -23.330999374389645 L 71.32499694824219 -23.22200012207031 L 71.24800109863281 -23.10400009155273 L 71.1780014038086 -22.97699928283691 L 71.11499786376953 -22.84099960327148 L 71.06600189208984 -22.694999694824215 L 71.0260009765625 -22.538999557495114 L 71.0239028930664 -22.527999877929684 L 70.99400329589844 -22.37100028991699 L 70.97200012207031 -22.1919994354248 L 70.95899963378906 -22.00099945068359 L 70.9540023803711 -21.799999237060543 L 70.95899963378906 -21.5930004119873 L 70.97200012207031 -21.396999359130856 L 70.99400329589844 -21.214000701904293 L 71.0260009765625 -21.044000625610348 L 71.06600189208984 -20.885000228881832 L 71.11499786376953 -20.739000320434567 L 71.1780014038086 -20.59700012207031 L 71.24004364013672 -20.479999542236325 L 71.24800109863281 -20.465000152587887 L 71.32499694824219 -20.3430004119873 L 71.40899658203125 -20.232000350952145 L 71.4990005493164 -20.129999160766598 L 71.59600067138672 -20.03800010681152 L 71.68000030517578 -19.97480773925781 L 71.70500183105469 -19.955999374389645 L 71.82099914550781 -19.88199996948242 L 71.94100189208984 -19.818000793457028 L 72.06800079345703 -19.76199913024902 L 72.19999694824219 -19.715000152587887 L 72.33699798583984 -19.677999496459957 L 72.47899627685547 -19.64100074768066 L 72.62200164794922 -19.611000061035153 L 72.7040023803711 -19.598081588745114 L 72.76799774169922 -19.587999343872067 M 80.95700073242188 -19.64100074768066 L 81.10099792480469 -19.611000061035153 L 81.24700164794922 -19.587999343872067 L 81.3949966430664 -19.57099914550781 L 81.54499816894531 -19.561000823974606 L 81.697998046875 -19.556999206542965 L 81.85600280761719 -19.561000823974606 L 81.91999816894531 -19.565183639526364 L 82.00900268554688 -19.57099914550781 L 82.15899658203125 -19.587999343872067 L 82.3030014038086 -19.611000061035153 L 82.4294662475586 -19.63790893554687 L 82.44400024414062 -19.64100074768066 L 82.5790023803711 -19.677999496459957 L 82.71700286865234 -19.715000152587887 L 82.8489990234375 -19.76199913024902 L 82.94400024414062 -19.80422210693359 L 82.9749984741211 -19.818000793457028 L 83.09600067138672 -19.88199996948242 L 83.21099853515625 -19.955999374389645 L 83.32099914550781 -20.03800010681152 L 83.41799926757812 -20.129999160766598 L 83.50800323486328 -20.232000350952145 L 83.59200286865234 -20.3430004119873 L 83.66799926757812 -20.465000152587887 L 83.67607116699219 -20.479999542236325 L 83.73899841308594 -20.59700012207031 L 83.802001953125 -20.739000320434567 L 83.86299896240234 -20.885000228881832 L 83.91300201416016 -21.044000625610348 L 83.9520034790039 -21.214000701904293 L 83.9800033569336 -21.396999359130856 L 83.99700164794922 -21.5930004119873 L 84.00199890136719 -21.799999237060543 L 83.99700164794922 -22.00099945068359 L 83.9800033569336 -22.1919994354248 L 83.9520034790039 -22.37100028991699 L 83.9155502319336 -22.527999877929684 L 83.91300201416016 -22.538999557495114 L 83.86299896240234 -22.694999694824215 L 83.802001953125 -22.84099960327148 L 83.73899841308594 -22.97699928283691 L 83.66799926757812 -23.10400009155273 L 83.59200286865234 -23.22200012207031 L 83.50800323486328 -23.330999374389645 L 83.41799926757812 -23.43099975585937 L 83.32099914550781 -23.521999359130856 L 83.21099853515625 -23.60400009155273 L 83.09600067138672 -23.677999496459957 L 82.9749984741211 -23.74200057983398 L 82.94400024414062 -23.755777359008786 L 82.8489990234375 -23.798000335693356 L 82.7270278930664 -23.841428756713864 L 82.71700286865234 -23.84499931335449 L 82.5790023803711 -23.88199996948242 L 82.44400024414062 -23.919000625610348 L 82.3030014038086 -23.948999404907223 L 82.15899658203125 -23.97200012207031 L 82.00900268554688 -23.989000320434567 L 81.91999816894531 -23.994817733764645 L 81.85600280761719 -23.999000549316403 L 81.697998046875 -24.003000259399407 L 81.54499816894531 -23.999000549316403 L 81.3949966430664 -23.989000320434567 L 81.24700164794922 -23.97200012207031 L 81.10099792480469 -23.948999404907223 L 80.95700073242188 -23.919000625610348 L 80.89600372314453 -23.902992248535153 L 80.81600189208984 -23.88199996948242 L 80.6780014038086 -23.84499931335449 L 80.5459976196289 -23.798000335693356 L 80.41999816894531 -23.74200057983398 L 80.29900360107422 -23.677999496459957 L 80.18399810791016 -23.60400009155273 L 80.0739974975586 -23.521999359130856 L 79.97699737548828 -23.43099975585937 L 79.88700103759766 -23.330999374389645 L 79.87200164794922 -23.311534881591793 L 79.8030014038086 -23.22200012207031 L 79.72699737548828 -23.10400009155273 L 79.65599822998047 -22.97699928283691 L 79.59300231933594 -22.84099960327148 L 79.54399871826172 -22.694999694824215 L 79.50399780273438 -22.538999557495114 L 79.50196838378906 -22.527999877929684 L 79.4729995727539 -22.37100028991699 L 79.44999694824219 -22.1919994354248 L 79.43699645996094 -22.00099945068359 L 79.43299865722656 -21.799999237060543 L 79.43699645996094 -21.5930004119873 L 79.44999694824219 -21.396999359130856 L 79.4729995727539 -21.214000701904293 L 79.50399780273438 -21.044000625610348 L 79.54399871826172 -20.885000228881832 L 79.59300231933594 -20.739000320434567 L 79.65599822998047 -20.59700012207031 L 79.71893310546875 -20.479999542236325 L 79.72699737548828 -20.465000152587887 L 79.8030014038086 -20.3430004119873 L 79.87200164794922 -20.251821517944332 L 79.88700103759766 -20.232000350952145 L 79.97699737548828 -20.129999160766598 L 80.0739974975586 -20.03800010681152 L 80.18399810791016 -19.955999374389645 L 80.29900360107422 -19.88199996948242 L 80.41999816894531 -19.818000793457028 L 80.5459976196289 -19.76199913024902 L 80.6780014038086 -19.715000152587887 L 80.81600189208984 -19.677999496459957 L 80.89600372314453 -19.657007217407223 L 80.95700073242188 -19.64100074768066 M 60.11000061035156 -40.5610008239746 L 60.26300048828125 -40.557998657226555 L 60.41600036621094 -40.56090545654296 L 60.42100143432617 -40.5610008239746 L 60.57400131225586 -40.570999145507805 L 60.7239990234375 -40.588001251220696 L 60.86800003051758 -40.61100006103515 L 61.00428771972656 -40.639995574951165 L 61.00899887084961 -40.640998840332024 L 61.14500045776367 -40.67800140380859 L 61.28200149536133 -40.71500015258788 L 61.41400146484375 -40.76200103759765 L 61.439998626708984 -40.77355575561523 L 61.540000915527344 -40.818000793457024 L 61.6609992980957 -40.881999969482415 L 61.7760009765625 -40.956001281738274 L 61.78136444091797 -40.95999908447265 L 61.88600158691406 -41.03799819946288 L 61.983001708984375 -41.13000106811523 L 62.073001861572266 -41.23199844360351 L 62.15700149536133 -41.342998504638665 L 62.23400115966797 -41.46500015258788 L 62.30400085449219 -41.597000122070305 L 62.367000579833984 -41.73899841308593 L 62.428001403808594 -41.884998321533196 L 62.459754943847656 -41.98400115966796 L 62.479000091552734 -42.04399871826171 L 62.518001556396484 -42.21400070190429 L 62.54499816894531 -42.39699935913085 L 62.5620002746582 -42.592998504638665 L 62.56800079345703 -42.79999923706054 L 62.5620002746582 -43.00099945068359 L 62.561378479003906 -43.00799942016601 L 62.54499816894531 -43.19200134277343 L 62.518001556396484 -43.37099838256835 L 62.479000091552734 -43.53900146484374 L 62.4640007019043 -43.584880828857415 L 62.428001403808594 -43.69499969482421 L 62.367000579833984 -43.84099960327148 L 62.30400085449219 -43.97700119018554 L 62.23400115966797 -44.10400009155273 L 62.15700149536133 -44.222000122070305 L 62.073001861572266 -44.331001281738274 L 61.983001708984375 -44.43099975585937 L 61.88600158691406 -44.52199935913085 L 61.7760009765625 -44.60400009155273 L 61.6609992980957 -44.67800140380859 L 61.540000915527344 -44.74200057983398 L 61.439998626708984 -44.786445617675774 L 61.41400146484375 -44.79800033569335 L 61.285240173339844 -44.84384536743163 L 61.28200149536133 -44.84500122070312 L 61.14500045776367 -44.881999969482415 L 61.00899887084961 -44.91899871826171 L 60.86800003051758 -44.94900131225585 L 60.7239990234375 -44.972000122070305 L 60.57400131225586 -44.98899841308593 L 60.42100143432617 -44.9990005493164 L 60.41600036621094 -44.999126434326165 L 60.26300048828125 -45.002998352050774 L 60.11000061035156 -44.9990005493164 L 59.959999084472656 -44.98899841308593 L 59.8120002746582 -44.972000122070305 L 59.66600036621094 -44.94900131225585 L 59.52199935913086 -44.91899871826171 L 59.391998291015625 -44.88488769531249 L 59.38100051879883 -44.881999969482415 L 59.24300003051758 -44.84500122070312 L 59.111000061035156 -44.79800033569335 L 58.98500061035156 -44.74200057983398 L 58.86399841308594 -44.67800140380859 L 58.749000549316406 -44.60400009155273 L 58.638999938964844 -44.52199935913085 L 58.54199981689453 -44.43099975585937 L 58.45199966430664 -44.331001281738274 L 58.36800003051758 -44.222000122070305 L 58.29100036621094 -44.10400009155273 L 58.25131607055664 -44.03200149536132 L 58.22100067138672 -43.97700119018554 L 58.15800094604492 -43.84099960327148 L 58.10900115966797 -43.69499969482421 L 58.069000244140625 -43.53900146484374 L 58.03799819946289 -43.37099838256835 L 58.01499938964844 -43.19200134277343 L 58.00247573852539 -43.00799942016601 L 58.00199890136719 -43.00099945068359 L 57.99700164794922 -42.79999923706054 L 58.00199890136719 -42.592998504638665 L 58.01499938964844 -42.39699935913085 L 58.03799819946289 -42.21400070190429 L 58.069000244140625 -42.04399871826171 L 58.0840950012207 -41.98400115966796 L 58.10900115966797 -41.884998321533196 L 58.15800094604492 -41.73899841308593 L 58.22100067138672 -41.597000122070305 L 58.29100036621094 -41.46500015258788 L 58.36800003051758 -41.342998504638665 L 58.45199966430664 -41.23199844360351 L 58.54199981689453 -41.13000106811523 L 58.638999938964844 -41.03799819946288 L 58.74363327026367 -40.95999908447265 L 58.749000549316406 -40.956001281738274 L 58.86399841308594 -40.881999969482415 L 58.98500061035156 -40.818000793457024 L 59.111000061035156 -40.76200103759765 L 59.24300003051758 -40.71500015258788 L 59.38100051879883 -40.67800140380859 L 59.391998291015625 -40.67511367797851 L 59.52199935913086 -40.640998840332024 L 59.66600036621094 -40.61100006103515 L 59.8120002746582 -40.588001251220696 L 59.959999084472656 -40.570999145507805 L 60.11000061035156 -40.5610008239746 M 5.554999828338623 -15.800999641418453 L 4.883999824523926 -14.439999580383297 L 4.395999908447266 -13.00300025939941 L 4.099999904632568 -11.513999938964842 L 4.000999927520752 -9.999999999999998 L 4.099999904632568 -8.486000061035154 L 4.395999908447266 -6.997000217437742 L 4.883999824523926 -5.55999994277954 L 5.554999828338623 -4.198999881744384 L 6.3979997634887695 -2.9370000362396236 L 7.39900016784668 -1.7960000038146968 L 8.539999961853027 -0.7950000166893002 L 9.730142593383789 1.1102230246251565e-16 L 9.802000045776367 0.04800000041723261 L 11.163000106811523 0.718999981880188 L 12.600000381469727 1.2070000171661377 L 14.08899974822998 1.5030000209808345 L 15.602999687194824 1.6030000448226924 L 17.118000030517578 1.5030000209808345 L 18.606000900268555 1.2070000171661377 L 20.042999267578125 0.718999981880188 L 21 0.24718001484870916 L 21.40399932861328 0.04800000041723261 L 21.47585678100586 1.1102230246251565e-16 L 22.666000366210938 -0.7950000166893002 L 23.80699920654297 -1.7960000038146968 L 24.808000564575195 -2.9370000362396236 L 25.650999069213867 -4.198999881744384 L 26.32200050354004 -5.55999994277954 L 26.809999465942383 -6.997000217437742 L 27.106000900268555 -8.486000061035154 L 27.20599937438965 -9.999999999999998 L 27.106000900268555 -11.513999938964842 L 26.809999465942383 -13.00300025939941 L 26.32200050354004 -14.439999580383297 L 25.650999069213867 -15.800999641418453 L 25.261564254760742 -16.38400077819824 L 24.808000564575195 -17.062999725341793 L 23.80699920654297 -18.204000473022457 L 22.666000366210938 -19.20499992370605 L 21.40399932861328 -20.048000335693356 L 20.042999267578125 -20.718999862670895 L 18.606000900268555 -21.20700073242187 L 17.118000030517578 -21.50300025939941 L 16.384000778198242 -21.55144882202148 L 15.602999687194824 -21.603000640869137 L 14.08899974822998 -21.50300025939941 L 12.600000381469727 -21.20700073242187 L 11.163000106811523 -20.718999862670895 L 9.802000045776367 -20.048000335693356 L 8.539999961853027 -19.20499992370605 L 7.39900016784668 -18.204000473022457 L 6.3979997634887695 -17.062999725341793 L 5.944436550140381 -16.38400077819824 L 5.554999828338623 -15.800999641418453 M -39.78200149536133 -15.300999641418453 L -40.39500045776367 -14.057000160217282 L -40.840999603271484 -12.744000434875485 L -41.11199951171875 -11.383999824523924 L -41.202999114990234 -9.999999999999998 L -41.11199951171875 -8.616000175476072 L -40.840999603271484 -7.256000041961668 L -40.39500045776367 -5.942999839782714 L -39.78200149536133 -4.698999881744384 L -39.012001037597656 -3.5460000038146964 L -38.09700012207031 -2.5030000209808345 L -37.05400085449219 -1.5880000591278072 L -35.9010009765625 -0.8180000185966488 L -34.65700149536133 -0.2049999982118605 L -34.053489685058594 1.1102230246251565e-16 L -33.34400177001953 0.24099999666213995 L -31.983999252319336 0.5120000243186951 L -30.600000381469727 0.6029999852180481 L -29.215999603271484 0.5120000243186951 L -27.856000900268555 0.24099999666213995 L -27.146509170532227 1.1102230246251565e-16 L -26.542999267578125 -0.2049999982118605 L -25.298999786376953 -0.8180000185966488 L -24.145999908447266 -1.5880000591278072 L -23.10300064086914 -2.5030000209808345 L -22.187999725341797 -3.5460000038146964 L -21.417999267578125 -4.698999881744384 L -20.80500030517578 -5.942999839782714 L -20.358999252319336 -7.256000041961668 L -20.08799934387207 -8.616000175476072 L -19.99799919128418 -9.999999999999998 L -20.08799934387207 -11.383999824523924 L -20.358999252319336 -12.744000434875485 L -20.80500030517578 -14.057000160217282 L -21.417999267578125 -15.300999641418453 L -22.141252517700195 -16.38400077819824 L -22.187999725341797 -16.454000473022457 L -23.10300064086914 -17.496999740600582 L -24.145999908447266 -18.412000656127926 L -25.298999786376953 -19.181999206542965 L -26.542999267578125 -19.79500007629394 L -27.856000900268555 -20.240999221801754 L -29.215999603271484 -20.51199913024902 L -30.600000381469727 -20.603000640869137 L -31.983999252319336 -20.51199913024902 L -32.768001556396484 -20.35577583312988 L -33.34400177001953 -20.240999221801754 L -34.65700149536133 -19.79500007629394 L -35.9010009765625 -19.181999206542965 L -37.05400085449219 -18.412000656127926 L -38.09700012207031 -17.496999740600582 L -39.012001037597656 -16.454000473022457 L -39.058746337890625 -16.38400077819824 L -39.78200149536133 -15.300999641418453 M -65.05000305175781 -10.796999931335447 L -65.20500183105469 -11.57900047302246 L -65.46199798583984 -12.335000038146969 L -65.53600311279297 -12.4850959777832 L -65.81500244140625 -13.050999641418453 L -66.25900268554688 -13.715000152587887 L -66.78500366210938 -14.314999580383297 L -67.38500213623047 -14.84099960327148 L -68.04900360107422 -15.284999847412106 L -68.76499938964844 -15.63799953460693 L -69.52100372314453 -15.895000457763668 L -70.3030014038086 -16.049999237060543 L -71.0999984741211 -16.103000640869137 L -71.89700317382812 -16.049999237060543 L -72.67900085449219 -15.895000457763668 L -73.43499755859375 -15.63799953460693 L -73.72799682617188 -15.493546485900875 L -74.1510009765625 -15.284999847412106 L -74.81500244140625 -14.84099960327148 L -75.41500091552734 -14.314999580383297 L -75.94100189208984 -13.715000152587887 L -76.38500213623047 -13.050999641418453 L -76.73799896240234 -12.335000038146969 L -76.99500274658203 -11.57900047302246 L -77.1500015258789 -10.796999931335447 L -77.2030029296875 -9.999999999999998 L -77.1500015258789 -9.203000068664549 L -76.99500274658203 -8.420999526977537 L -76.91715240478516 -8.19200038909912 L -76.73799896240234 -7.664999961853026 L -76.38500213623047 -6.948999881744383 L -75.94100189208984 -6.284999847412108 L -75.41500091552734 -5.68499994277954 L -74.81500244140625 -5.1589999198913565 L -74.1510009765625 -4.71500015258789 L -73.72799682617188 -4.506453990936278 L -73.43499755859375 -4.361999988555907 L -72.67900085449219 -4.105000019073485 L -71.89700317382812 -3.950000047683715 L -71.0999984741211 -3.8980000019073477 L -70.3030014038086 -3.950000047683715 L -69.52100372314453 -4.105000019073485 L -68.76499938964844 -4.361999988555907 L -68.04900360107422 -4.71500015258789 L -67.38500213623047 -5.1589999198913565 L -66.78500366210938 -5.68499994277954 L -66.25900268554688 -6.284999847412108 L -65.81500244140625 -6.948999881744383 L -65.53600311279297 -7.514903545379637 L -65.46199798583984 -7.664999961853026 L -65.20500183105469 -8.420999526977537 L -65.05000305175781 -9.203000068664549 L -64.99700164794922 -9.999999999999998 L -65.05000305175781 -10.796999931335447 z" fill="none" stroke="rgb(255,0,0)" stroke-width="0.001mm" />
</svg>