<?xml version="1.0" standalone="no"?>
<!DOCTYPE svg PUBLIC "-//W3C//DTD SVG 1.1//EN"
  "http://www.w3.org/Graphics/SVG/1.1/DTD/svg11.dtd">
<svg width="212mm" height="91.99999999999997mm" viewBox="-107 -57.999999999999986 212 91.99999999999997" xmlns="http://www.w3.org/2000/svg" version="1.1">
	<title>svgOutput</title>
	<desc>made with tinkercad</desc>
<path d="M 104 -3.999999999999999 L 101 -3.999999999999999 L 101 1.1102230246251565e-16 L 101 11.999999999999996 L 104 11.999999999999996 L 104 32.99999999999999 L 101 32.99999999999999 L 87 32.99999999999999 L 87 29.999999999999993 L 71 29.999999999999993 L 71 32.99999999999999 L 55 32.99999999999999 L 55 29.999999999999993 L 39 29.999999999999993 L 39 32.99999999999999 L 23 32.99999999999999 L 23 29.999999999999993 L 7 29.999999999999993 L 7 32.99999999999999 L 0 32.99999999999999 L -9 32.99999999999999 L -9 29.999999999999993 L -25 29.999999999999993 L -25 32.99999999999999 L -41 32.99999999999999 L -41 29.999999999999993 L -57 29.999999999999993 L -57 32.99999999999999 L -65.53600311279297 32.99999999999999 L -73 32.99999999999999 L -73 29.999999999999993 L -89 29.999999999999993 L -89 32.99999999999999 L -106 32.99999999999999 L -106 29.999999999999993 L -106 11.999999999999996 L -103 11.999999999999996 L -103 1.1102230246251565e-16 L -103 -3.999999999999999 L -106 -3.999999999999999 L -106 -19.999999999999996 L -103 -19.999999999999996 L -103 -32.76800155639648 L -103 -35.99999999999999 L -106 -35.99999999999999 L -106 -49.15200042724608 L -106 -53.999999999999986 L -106 -56.999999999999986 L -98.30400085449219 -56.999999999999986 L -89 -56.999999999999986 L -89 -53.999999999999986 L -73 -53.999999999999986 L -73 -56.999999999999986 L -65.53600311279297 -56.999999999999986 L -57 -56.999999999999986 L -57 -53.999999999999986 L -41 -53.999999999999986 L -41 -56.999999999999986 L -32.768001556396484 -56.999999999999986 L -25 -56.999999999999986 L -25 -53.999999999999986 L -9 -53.999999999999986 L -9 -56.999999999999986 L 0 -56.999999999999986 L 7 -56.999999999999986 L 7 -53.999999999999986 L 23 -53.999999999999986 L 23 -56.999999999999986 L 32.768001556396484 -56.999999999999986 L 39 -56.999999999999986 L 39 -53.999999999999986 L 55 -53.999999999999986 L 55 -56.999999999999986 L 65.53600311279297 -56.999999999999986 L 71 -56.999999999999986 L 71 -53.999999999999986 L 87 -53.999999999999986 L 87 -56.999999999999986 L 104 -56.999999999999986 L 104 -53.999999999999986 L 104 -35.99999999999999 L 101 -35.99999999999999 L 101 -19.999999999999996 L 104 -19.999999999999996 L 104 -3.999999999999999 z" fill="none" stroke="rgb(255,0,0)" stroke-width="0.001mm" />
</svg>